<svg xmlns="http://www.w3.org/2000/svg" xmlns:xlink="http://www.w3.org/1999/xlink" fill="none"
    version="1.1" width="26" height="26" viewBox="0 0 26 26">
    <defs>
        <clipPath id="master_svg0_2_7006">
            <rect x="0" y="0" width="26" height="26" rx="0" />
        </clipPath>
    </defs>
    <g clip-path="url(#master_svg0_2_7006)">
        <g>
            <path
                d="M13.3939,0L26,0L26,13C26,20.1799,20.1799,26,13,26C5.82006,26,0,20.1799,0,13C0,5.82006,5.82006,0,13,0C13.1324,0,13.2639,0.00157564,13.3947,0.00551532L13.3939,0ZM18.9091,7.26424L13.1379,7.09248L13,7.09091C9.76139,7.09088,7.12621,9.69772,7.09121,12.9361C7.05621,16.1746,9.63443,18.8377,12.8723,18.9077C16.1101,18.9777,18.801,16.4284,18.9059,13.1915L18.9099,12.5005L18.9091,7.26424Z"
                fill="#306EFD" fill-opacity="1" style="mix-blend-mode:passthrough" />
        </g>
        <g>
            <path
                d="M17.789474487304688,0L26.000004487304686,0L26.000004487304686,8.21053L17.789474487304688,8.21053L17.789474487304688,0Z"
                fill="#31F8FF" fill-opacity="1" style="mix-blend-mode:passthrough" />
        </g>
    </g>
</svg>