<svg xmlns="http://www.w3.org/2000/svg" xlink="http://www.w3.org/1999/xlink" fill="none" version="1.1" width="14"
    height="14" viewBox="0 0 14 14">
    <defs>
        <clipPath id="master_svg0_53_7836">
            <rect x="0" y="0" width="14" height="14" rx="0" />
        </clipPath>
    </defs>
    <g clipPath="url(#master_svg0_53_7836)">
        <g>
            <path
                d="M1.7500047529296876,1.16650390625C1.4278387529296874,1.166503772736,1.1666716194156874,1.42767090625,1.1666717529296875,1.74983690625L1.1666717529296875,12.24980390625C1.1666716194156874,12.57200390625,1.4278387529296874,12.83320390625,1.7500047529296876,12.83320390625L12.249971752929687,12.83320390625C12.572171752929687,12.83320390625,12.833371752929688,12.57200390625,12.833371752929688,12.24980390625C12.833371752929688,11.92770390625,12.572171752929687,11.66650390625,12.249971752929687,11.66650390625L2.3333417529296874,11.66650390625L2.3333417529296874,1.74983690625C2.3333417529296874,1.42767090625,2.0721707529296873,1.16650390625,1.7500047529296876,1.16650390625ZM10.208341752929687,4.66650390625C11.013951752929687,4.66678390625,11.667171752929688,4.01378390625,11.667171752929688,3.20817390625C11.667171752929688,2.40255390625,11.013951752929687,1.7495589062499999,10.208341752929687,1.74983690625C9.403121752929687,1.7501149062499999,8.750511752929688,2.40295390625,8.750511752929688,3.20817390625C8.750511752929688,4.0133839062500005,9.403121752929687,4.66622390625,10.208341752929687,4.66650390625ZM5.833341752929687,6.41650390625C6.477671752929687,6.41650390625,7.000001752929688,5.89417390625,7.000001752929688,5.24983390625C7.000001752929688,4.60550390625,6.477671752929687,4.08317390625,5.833341752929687,4.08317390625C5.189001752929688,4.08317390625,4.6666717529296875,4.60550390625,4.6666717529296875,5.24983390625C4.6666717529296875,5.89417390625,5.189001752929688,6.41650390625,5.833341752929687,6.41650390625ZM9.187501752929688,9.04150390625C9.751571752929687,9.04189390625,10.209041752929688,8.584733906250001,10.209041752929688,8.02067390625C10.209041752929688,7.45660390625,9.751571752929687,6.99944390625,9.187501752929688,6.99983390625C8.623991752929687,7.00022390625,8.167381752929687,7.45715390625,8.167381752929687,8.02067390625C8.167381752929687,8.58418390625,8.623991752929687,9.04111390625,9.187501752929688,9.04150390625ZM4.958341752929687,9.91650390625C5.441921752929687,9.91697390625,5.834191752929687,9.52508390625,5.834191752929687,9.04150390625C5.834191752929687,8.55792390625,5.441921752929687,8.16603390625,4.958341752929687,8.16650390625C4.475421752929687,8.16697390625,4.084191752929687,8.55859390625,4.084191752929687,9.04150390625C4.084191752929687,9.52442390625,4.475421752929687,9.91603390625,4.958341752929687,9.91650390625Z"
                fill="currentColor"/>
        </g>
    </g>
</svg>