<svg t="1750059975418" class="icon" viewBox="0 0 1024 1024" version="1.1"
    xmlns="http://www.w3.org/2000/svg" p-id="15159" xmlns:xlink="http://www.w3.org/1999/xlink"
    width="200" height="200">
    <path d="M0 0h1024v1024H0z" fill="#FFFFFF" p-id="15160"></path>
    <path
        d="M873.472 748.288a117.248 117.248 0 0 0-77.431467 29.5936l-194.850133-174.08a203.383467 203.383467 0 0 0 36.488533-116.394667 200.96 200.96 0 0 0-21.7088-91.733333l127.761067-105.028267a142.301867 142.301867 0 1 0-22.186667-29.5936l-124.7744 103.0656a204.9024 204.9024 0 0 0-286.071466-41.4208l-57.224534-73.984a116.309333 116.309333 0 1 0-30.1056 21.674667l59.733334 77.431467a199.509333 199.509333 0 0 0-54.749867 139.076266 204.032 204.032 0 0 0 58.197333 143.035734l-50.312533 68.078933a117.76 117.76 0 1 0 26.641067 25.156267l50.7904-69.563734a200.174933 200.174933 0 0 0 118.391466 37.546667 203.2128 203.2128 0 0 0 145.066667-60.194133l194.730667 174.4896a117.060267 117.060267 0 1 0 160.273066-41.4208 115.0976 115.0976 0 0 0-58.658133-15.803734z m0 0"
        p-id="15161"></path>
</svg>