<svg xmlns="http://www.w3.org/2000/svg" xmlns:xlink="http://www.w3.org/1999/xlink" fill="none" version="1.1" width="14"
    height="14" viewBox="0 0 14 14">
    <defs>
        <clipPath id="master_svg0_130_16681">
            <rect x="0" y="0" width="14" height="14" rx="0" />
        </clipPath>
    </defs>
    <g clip-path="url(#master_svg0_130_16681)">
        <g>
            <path
                d="M5.092816245117188,8.4458490625L1.9048162451171875,8.4458490625C1.0822232451171874,8.4417790625,0.4175262451171875,7.7737690625,0.4175262451171875,6.9511390625L0.4175262451171875,1.5034990625C0.4175262451171875,0.6807890625,1.0821142451171875,0.0129067225,1.9048162451171875,0.0087890625L7.359876245117188,0.0087890625C8.182586245117188,0.012906702499999999,8.847176245117188,0.6807890625,8.847176245117188,1.5034990625L8.847176245117188,4.9472690625L11.992326245117187,4.9472690625C12.837726245117187,4.9468090625,13.523326245117188,5.6319990625,13.523326245117188,6.4773790625L13.523326245117188,11.8549890625C13.522826245117187,12.6997890625,12.837926245117188,13.3842890625,11.993126245117187,13.3842890625L6.623756245117187,13.3842890625C5.778376245117188,13.3847890625,5.092816245117188,12.6995890625,5.092816245117188,11.8541890625L5.092816245117188,8.4458490625ZM5.092816245117188,7.4263190625L1.9048162451171875,7.4263190625C1.6454062451171876,7.4221990625,1.4370562451171875,7.2105590625,1.4370562451171875,6.9511390625L1.4370562451171875,4.5047390625L2.7191762451171875,3.1538190625L4.703056245117187,4.7909990625C4.9132562451171875,4.9664490625,5.223766245117187,4.9476690625,5.4112862451171875,4.7481790625L5.9992862451171876,4.1321690625L6.969596245117187,4.9472690625L6.622936245117187,4.9472690625C5.777996245117188,4.9472690625,5.092816245117188,5.6324390625,5.092816245117188,6.4773790625L5.092816245117188,7.4263190625ZM6.2965862451171875,3.0484090625L7.8276462451171875,4.3308790625L7.8276462451171875,1.5034990625C7.827666245117188,1.2440690625,7.619276245117187,1.0327490625,7.359876245117188,1.0291390625L1.9048162451171875,1.0291390625C1.6454462451171874,1.0327190625,1.4370562451171875,1.2440390625,1.4370562451171875,1.5034990625L1.4370562451171875,3.0223890625L2.3082362451171874,2.0774690625C2.4923862451171876,1.8706590625,2.8091662451171877,1.8518690625,3.0164662451171873,2.0354690625L5.001176245117187,3.6998190625L5.5883462451171875,3.0838190625C5.7726562451171874,2.8753490625,6.092406245117187,2.8593690625,6.2965862451171875,3.0484090625ZM6.622936245117187,5.9890290625L6.623756245117187,5.9890290625L11.992326245117187,5.9890290625C12.265926245117187,5.9887690625,12.491026245117187,6.2041090625,12.502926245117187,6.4773790625L12.502926245117187,11.8755890625C12.502926245117187,12.1572890625,12.274826245117188,12.3857890625,11.993126245117187,12.3861890625L6.623756245117187,12.3861890625C6.341286245117187,12.3861890625,6.113176245117187,12.1572890625,6.113176245117187,11.8755890625L6.113176245117187,6.4987990625C6.113626245117188,6.2173990625,6.341646245117188,5.9894690625,6.622936245117187,5.9890290625ZM10.051876245117187,7.1569990625L10.051876245117187,7.1215890625L8.847056245117187,7.1215890625L7.395176245117187,11.0102890625L7.395176245117187,11.0810890625L8.386706245117187,11.0810890625L8.719406245117188,10.1257890625L10.214116245117188,10.1257890625L10.512226245117187,11.0810890625L11.503726245117187,11.0810890625L10.051876245117187,7.1569990625ZM9.895406245117188,9.3245290625L8.960706245117187,9.3245290625L9.428466245117187,7.9714690625L9.895406245117188,9.3245290625Z"
                fill-rule="evenodd" fill="currentColor" fill-opacity="0.8999999761581421"
                style="mix-blend-mode:passthrough" />
        </g>
    </g>
</svg>