<svg xmlns="http://www.w3.org/2000/svg" xmlns:xlink="http://www.w3.org/1999/xlink" fill="none" version="1.1" width="14"
    height="14" viewBox="0 0 14 14">
    <defs>
        <clipPath id="master_svg0_53_7850">
            <rect x="0" y="0" width="14" height="14" rx="0" />
        </clipPath>
    </defs>
    <g clip-path="url(#master_svg0_53_7850)">
        <g>
            <path
                d="M6.999371426868438,0.7783342598684387Q7.421081426868438,0.7783342598684387,7.581311426868439,1.0970104268684389L11.29577142686844,8.524651426868438Q11.416371426868439,8.765841426868437,11.331271426868438,9.021581426868439Q11.246171426868438,9.277041426868438,11.005971426868438,9.397851426868439Q10.868471426868439,9.465921426868439,10.717191426868439,9.465921426868439Q10.316411426868438,9.467401426868438,10.134421426868439,9.106241426868438L9.13056142686844,7.098531426868439L8.933501426868439,7.124801426868439Q8.89760142686844,7.129591426868439,8.847741426868438,7.1437714268684385L8.85860142686844,7.145211426868439L5.159891426868438,7.145211426868439Q5.157641426868438,7.144581426868439,5.154801426868438,7.1437714268684385Q5.1049414268684385,7.129591426868439,5.069041426868439,7.124801426868439L4.872151426868439,7.098551426868439L3.866571426868439,9.105541426868438Q3.7459614268684387,9.346091426868439,3.4905814268684385,9.431161426868439Q3.2352614268684388,9.516201426868438,2.9945214268684386,9.396161426868439Q2.7541014268684387,9.276291426868438,2.6688714268684386,9.020781426868439Q2.5836214268684388,8.76521142686844,2.704101426868439,8.524911426868439L6.4176314268684385,1.0965924268684386Q6.577401426868438,0.7783342598684387,6.999371426868438,0.7783342598684387ZM8.501911426868439,5.843761426868439L7.0000014268684385,2.839941426868439L6.750841426868439,3.3382714268684386L5.498091426868439,5.843761426868439L8.501911426868439,5.843761426868439ZM11.922571426868439,10.712751426868438L11.922571426868439,9.784721426868439Q11.922571426868439,9.515441426868438,12.112571426868438,9.325351426868439Q12.30267142686844,9.135271426868439,12.571971426868439,9.135271426868439Q12.840671426868438,9.135271426868439,13.030871426868439,9.325511426868438Q13.221471426868439,9.516081426868439,13.221471426868439,9.785991426868438L13.221471426868439,10.714021426868438Q13.221471426868439,11.752671426868439,12.487371426868439,12.486671426868439Q11.753271426868439,13.220771426868438,10.714661426868439,13.220771426868438L3.285361426868439,13.220771426868438Q2.2466714268684385,13.220771426868438,1.5126914268684386,12.486571426868439Q0.7785785794284387,11.752271426868438,0.7785784006084387,10.712751426868438L0.7785784006084387,9.784721426868439Q0.7785784006084387,9.51542142686844,0.9687324268684387,9.325451426868439Q1.1590924268684386,9.135271426868439,1.4293034268684388,9.135271426868439Q1.6985844268684387,9.135271426868439,1.8886714268684388,9.325351426868439Q2.0787614268684385,9.515441426868438,2.0787614268684385,9.784721426868439L2.0787614268684385,10.712751426868438Q2.0787614268684385,11.21277142686844,2.4320314268684387,11.566071426868438Q2.785301426868439,11.91937142686844,3.285361426868439,11.91937142686844L10.715921426868439,11.91937142686844Q11.215171426868439,11.91937142686844,11.56867142686844,11.566171426868438Q11.922571426868439,11.21267142686844,11.922571426868439,10.712751426868438Z"
                fill="currentColor"/>
        </g>
    </g>
</svg>