<svg xmlns="http://www.w3.org/2000/svg" xlink="http://www.w3.org/1999/xlink" fill="none" version="1.1" width="14"
    height="14" viewBox="0 0 14 14">
    <defs>
        <clipPath id="master_svg0_53_7801">
            <rect x="0" y="0" width="14" height="14" rx="0" />
        </clipPath>
    </defs>
    <g clipPath="url(#master_svg0_53_7801)">
        <g>
            <path
                d="M4.4614595117187505,12.21149296875L3.27301951171875,12.21149296875C2.43858951171875,12.21149296875,1.76165951171875,11.53599296875,1.75986951171875,10.70159296875L1.75986951171875,9.50991296875C1.69840951171875,9.20723296875,1.4322825117187499,8.98972296875,1.12343251171875,8.98972296875C0.81458251171875,8.98972296875,0.54845941171875,9.20723296875,0.48699938750975,9.50991296875L0.48699938750975,10.70159296875C0.48878885171875,12.23949296875,1.73507951171875,13.48579296875,3.27301951171875,13.48759296875L4.4614595117187505,13.48759296875C4.86148951171875,13.56349296875,5.23183951171875,13.25669296875,5.23183951171875,12.84959296875C5.23183951171875,12.44239296875,4.86148951171875,12.13569296875,4.4614595117187505,12.21149296875ZM10.68619951171875,0.49918386875L9.49122951171875,0.49918386875C9.09119951171875,0.42334516875,8.72084951171875,0.73008196875,8.72084951171875,1.13724096875C8.72084951171875,1.54440296875,9.09119951171875,1.85113296875,9.49122951171875,1.77529296875L10.68619951171875,1.77529296875C11.52309951171875,1.77529296875,12.20109951171875,2.45473296875,12.19929951171875,3.29169296875L12.19929951171875,4.48014296875C12.12349951171875,4.88017296875,12.43019951171875,5.25052296875,12.83739951171875,5.25052296875C13.24449951171875,5.25052296875,13.55129951171875,4.88017296875,13.47539951171875,4.48014296875L13.47539951171875,3.29169296875C13.47539951171875,1.75070296875,12.22719951171875,0.50097516875,10.68619951171875,0.49918386875ZM1.13642151171875,5.11657296875C1.49508951171875,5.11657296875,1.78583951171875,4.82581296875,1.78583951171875,4.46715296875L1.78583951171875,3.28845296875C1.78571951171875,2.46280296875,2.44748951171875,1.78947296875,3.27301951171875,1.77529296875L4.46470951171875,1.77529296875C4.77126951171875,1.71718296875,4.99316951171875,1.44926096875,4.99316951171875,1.13724096875C4.99316951171875,0.8252209687500001,4.77126951171875,0.55730146875,4.46470951171875,0.49918376875L3.27301951171875,0.49918376875C1.73455951171875,0.50276056875,0.48878412171875,1.74998296875,0.48699951171875,3.28845296875L0.48699951171875,4.4768929687500005C0.49228221171875,4.83170296875,0.78148451171875,5.11657296875,1.13642151171875,5.11657296875ZM12.82599951171875,8.87347296875C12.46729951171875,8.87347296875,12.17659951171875,9.16423296875,12.17659951171875,9.52289296875L12.17659951171875,10.71459296875C12.17479951171875,11.54899296875,11.49789951171875,12.22449296875,10.66339951171875,12.22449296875L9.49122951171875,12.22449296875C9.09119951171875,12.14869296875,8.72084951171875,12.45539296875,8.72084951171875,12.86259296875C8.72084951171875,13.26969296875,9.09119951171875,13.57649296875,9.49122951171875,13.50059296875L10.68619951171875,13.50059296875C12.23039951171875,13.50059296875,13.48079951171875,12.24589296875,13.47539951171875,10.70159296875L13.47539951171875,9.50991296875C13.46839951171875,9.15639296875,13.17969951171875,8.87347296875,12.82599951171875,8.87347296875ZM3.55875951171875,5.04513296875C3.04851951171875,5.02661296875,2.55505951171875,5.22896296875,2.20471951171875,5.60039296875C1.85708951171875,5.98931296875,1.67428951171875,6.49815296875,1.69491951171875,7.01937296875C1.67765951171875,7.51882296875,1.85722951171875,8.00508296875,2.19497951171875,8.373422968749999C2.53429951171875,8.72454296875,3.00572951171875,8.91665296875,3.49381951171875,8.90270296875C3.99599951171875,8.92054296875,4.48138951171875,8.72047296875,4.82513951171875,8.353942968750001C5.17902951171875,7.97254296875,5.37008951171875,7.46808296875,5.35765951171875,6.94794296875C5.37655951171875,6.44765296875,5.20214951171875,5.95928296875,4.87059951171875,5.58415296875C4.53414951171875,5.21989296875,4.05411951171875,5.02265296875,3.55875951171875,5.04513296875ZM4.12700951171875,7.77270296875C3.98158951171875,7.95987296875,3.75312951171875,8.06317296875,3.51654951171875,8.04871296875C3.28045951171875,8.058712968750001,3.05458951171875,7.95184296875,2.91258951171875,7.76296296875C2.75749951171875,7.53686296875,2.67792951171875,7.26748296875,2.68528951171875,6.99340296875C2.67167951171875,6.71150296875,2.75409951171875,6.43333296875,2.91907951171875,6.20435296875C3.06414951171875,6.01139296875,3.29482951171875,5.90212296875,3.53602951171875,5.91211296875C3.76985951171875,5.90067296875,3.99396951171875,6.00663296875,4.13349951171875,6.19461296875C4.29290951171875,6.43422296875,4.37037951171875,6.71904296875,4.35430951171875,7.00639296875C4.36566951171875,7.27997296875,4.28569951171875,7.54956296875,4.12700951171875,7.77270296875ZM7.49425951171875,5.04513296875C6.96227951171875,5.02772296875,6.44702951171875,5.23241296875,6.07202951171875,5.61013296875C5.70014951171875,5.99465296875,5.50084951171875,6.51401296875,5.52001951171875,7.04860296875C5.49463951171875,7.54402296875,5.67024951171875,8.02872296875,6.00707951171875,8.39290296875C6.36327951171875,8.74061296875,6.84762951171875,8.92518296875,7.34488951171875,8.90270296875C7.70629951171875,8.91606296875,8.06601951171875,8.84722296875,8.39695951171875,8.70138296875L8.452159511718751,8.67540296875L8.452159511718751,7.74673296875L8.30278951171875,7.83440296875C8.05644951171875,7.97768296875,7.77596951171875,8.05172296875,7.49100951171875,8.04871296875C7.21929951171875,8.064992968750001,6.95426951171875,7.96041296875,6.76690951171875,7.76296296875C6.58446951171875,7.54962296875,6.49243951171875,7.27353296875,6.51037951171875,6.99340296875C6.49507951171875,6.70121296875,6.59672951171875,6.41495296875,6.79287951171875,6.19786296875C6.98885951171875,5.99152296875,7.26525951171875,5.88119296875,7.54945951171875,5.89587296875C7.81692951171875,5.89269296875,8.08037951171875,5.96108296875,8.31252951171875,6.09395296875L8.46189951171875,6.18162296875L8.46189951171875,5.20749296875L8.39695951171875,5.18476296875C8.10707951171875,5.08361296875,7.80114951171875,5.03629296875,7.49425951171875,5.04513296875ZM11.58889951171875,6.16214296875C11.58889951171875,5.68157296875,11.35179951171875,5.10683296875,10.22507951171875,5.10683296875L8.88726951171875,5.10683296875L8.88726951171875,8.83776296875L9.83866951171875,8.83776296875L9.83866951171875,7.47072296875L9.96855951171875,7.47072296875C10.03130951171875,7.47088296875,10.09208951171875,7.49267296875,10.14064951171875,7.53242296875C10.24438951171875,7.62491296875,10.33119951171875,7.73480296875,10.39716951171875,7.85713296875L10.98169951171875,8.83126296875L12.08569951171875,8.83126296875L11.32259951171875,7.64282296875C11.21759951171875,7.46494296875,11.08379951171875,7.30581296875,10.92649951171875,7.17199296875C11.09379951171875,7.09896296875,11.24169951171875,6.98775296875,11.35829951171875,6.84728296875C11.51319951171875,6.65303296875,11.59479951171875,6.41049296875,11.58889951171875,6.16214296875ZM10.61469951171875,6.25630296875C10.62129951171875,6.37837296875,10.57379951171875,6.49715296875,10.48484951171875,6.58101296875C10.38650951171875,6.66728296875,10.25827951171875,6.71158296875,10.12765951171875,6.70440296875L9.83866951171875,6.70440296875L9.83866951171875,5.87639296875L10.12441951171875,5.87639296875C10.55299951171875,5.87639296875,10.59849951171875,6.08096296875,10.59849951171875,6.25630296875L10.61469951171875,6.25630296875Z"
                fill="currentColor"/>
        </g>
    </g>
</svg>