<svg t="1750060027130" class="icon" viewBox="0 0 1024 1024" version="1.1"
    xmlns="http://www.w3.org/2000/svg" p-id="16164" xmlns:xlink="http://www.w3.org/1999/xlink"
    width="200" height="200">
    <path
        d="M512.001 1023.996c282.299 0 511.999-229.69 511.999-511.994C1024 229.697 794.303 0.004 512.001 0.004 229.682 0.004 0 229.68 0 512.002c0 282.319 229.684 511.994 512.001 511.994z m0-968.522c251.728 0.001 456.527 204.8 456.527 456.529 0 251.725-204.803 456.523-456.527 456.523-251.726 0-456.529-204.796-456.529-456.523 0-251.729 204.801-456.531 456.529-456.529z"
        p-id="16165"></path>
    <path
        d="M451.773 250.679c0.004 6.672 0.829 14.222 1.341 20.888 1.439 18.669 4.995 38.355 8.238 56.795 6.469 36.766 11.889 73.866 17.26 110.808 5.166 35.534 10.284 71.081 15.136 106.659 2.284 16.742 4.604 33.524 7.265 50.211 1.184 7.425 2.446 15.08 3.128 22.569 0.219 2.396 0.781 6.814 2.255 8.81 0.042 0.055 0.074 0.104 0.111 0.162 1.894 3.078 4.527 5.873 8.52 5.256 4.298-0.492 6.752-8.349 7.666-11.7 2.885-10.591 4.522-22.031 5.796-32.92 1.805-15.431 3.979-30.834 6.165-46.215l14.135-99.501c3.222-25.733 6.428-51.468 9.677-77.197 2.208-17.489 4.437-34.981 6.803-52.45 1.415-10.441 2.825-20.96 4.586-31.287a184.383 184.383 0 0 0 1.504-37.945c-0.841-13.202-7.592-23.404-17.883-31.352-12.742-9.843-28.574-12.98-44.378-12.781-14.508 0.181-30.266 3.09-41.15 13.444-10.454 9.947-14.852 23.696-16.175 37.746z m60.104 454.136c-10.355 0.228-20.164 3.091-29.311 7.886-9.608 5.032-17.107 12.259-22.544 21.642-5.444 9.393-8.198 19.47-8.08 30.324 0.116 10.712 2.755 20.789 8.086 30.09 5.275 9.205 12.542 16.562 21.736 21.852 9.307 5.355 19.321 7.966 30.109 7.967 10.697 0.22 20.737-2.477 30.016-7.798 9.316-5.347 16.686-12.713 22.025-22.028 5.347-9.33 8.095-19.474 8.322-30.176 0-10.853-2.874-20.847-8.316-30.231-5.51-9.5-13.095-16.792-22.831-21.874-9.132-4.767-18.913-7.654-29.212-7.654z"
        p-id="16166"></path>
</svg>