<svg xmlns="http://www.w3.org/2000/svg" xlink="http://www.w3.org/1999/xlink" fill="none" version="1.1" width="14"
    height="14" viewBox="0 0 14 14">
    <defs>
        <clipPath id="master_svg0_53_7814">
            <rect x="0" y="0" width="14" height="14" rx="0" />
        </clipPath>
    </defs>
    <g clipPath="url(#master_svg0_53_7814)">
        <g>
            <path
                d="M9.80475859375,4.37415234375L8.84820859375,4.37415234375L8.84820859375,3.50461234375L6.58734859375,2.54806234375C6.41339859375,2.46105234375,6.23951859375,2.63500234375,6.23951859375,2.80888234375L6.23951859375,3.01934234375C6.26931859375,3.03400234375,6.29833859375,3.05066234375,6.32634859375,3.06932234375C6.58716859375,3.24334234375,6.76111859375,3.50416234375,6.76111859375,3.85199234375C6.76111859375,4.24654234375,6.56218859375,4.54165234375,6.23951859375,4.66206234375L6.23951859375,7.11366234375C6.42051859375,7.11964234375,6.60013859375,7.16287234375,6.76111859375,7.24335234375C7.10894859375,7.41723234375,7.28282859375,7.76513234375,7.28282859375,8.19983234375C7.28282859375,8.77929234375,6.81000859375,9.27997234375,6.23951859375,9.32676234375L6.23951859375,10.95980234375C6.33673859375,10.89200234375,6.45574859375,10.86270234375,6.58716859375,10.89560234375C6.87856859375,10.89560234375,7.10894859375,11.07870234375,7.17602859375,11.34260234375L8.84820859375,10.63520234375L8.84820859375,9.76562234375L9.89169859375,9.76562234375L9.89169859375,11.50480234375C9.89169859375,11.59180234375,9.80475859375,11.76570234375,9.71781859375,11.76570234375L5.36997859375,13.59180234375C5.19602859375,13.67870234375,5.02214859375,13.50480234375,5.02214859375,13.33090234375L5.02214859375,8.21916234375C5.02202859375,8.21273234375,5.02196859375,8.20629234375,5.02196859375,8.19983234375C5.02196859375,8.19331234375,5.02202859375,8.186812343749999,5.02214859375,8.180332343749999L5.02214859375,3.87222234375C5.02202859375,3.86551234375,5.02196859375,3.85876234375,5.02196859375,3.85199234375C5.02196859375,3.84560234375,5.02202859375,3.83924234375,5.02214859375,3.83291234375L5.02214859375,0.80891634375C5.02214859375,0.6349663437499999,5.19602859375,0.46108674375,5.36997859375,0.54802674375L9.63094859375,2.3741123437500002C9.71781859375,2.46112234375,9.80475859375,2.54806234375,9.80475859375,2.63500234375L9.80475859375,4.37415234375ZM1.97854859375,3.15678234375C1.3698285937499999,3.15678234375,0.93505859375,2.72194234375,0.93505859375,2.2002323437499998C0.93505859375,1.59151234375,1.3698285937499999,1.15667634375,1.89160859375,1.15674634375C2.50032859375,1.15674634375,2.93509859375,1.67845234375,2.93509859375,2.2002323437499998C2.93509859375,2.72194234375,2.50032859375,3.15678234375,1.97854859375,3.15678234375ZM3.80470859375,6.63508234375C3.28292859375,6.63508234375,2.84815859375,6.20031234375,2.84815859375,5.76547234375C2.84815859375,5.24376234375,3.28292859375,4.80892234375,3.80470859375,4.80892234375C4.32648859375,4.80892234375,4.76132859375,5.24376234375,4.76132859375,5.76547234375C4.76132859375,6.20032234375,4.32648859375,6.63508234375,3.80470859375,6.63508234375ZM8.32638859375,6.46075234375C7.89161859375,6.46075234375,7.54378859375,6.11292234375,7.54378859375,5.67815234375C7.54378859375,5.24338234375,7.89161859375,4.89555234375,8.32638859375,4.89555234375C8.76115859375,4.89555234375,9.10898859375,5.24338234375,9.10898859375,5.67815234375C9.10898859375,6.11292234375,8.76115859375,6.46075234375,8.32638859375,6.46075234375ZM12.93515859375,7.06947234375C12.50025859375,7.06947234375,12.15245859375,6.72164234375,12.15245859375,6.28687234375C12.15245859375,5.85203234375,12.50025859375,5.50420234375,12.93515859375,5.50420234375C13.36995859375,5.50420234375,13.71775859375,5.85203234375,13.71775859375,6.28687234375C13.71775859375,6.72164234375,13.36995859375,7.06947234375,12.93515859375,7.06947234375ZM10.76120859375,8.19990234375C10.32642859375,8.19990234375,9.97859859375,7.85207234375,9.97859859375,7.41730234375C9.97676859375,6.98433234375,10.32822859375,6.63287234375,10.76120859375,6.63470234375C11.19605859375,6.63470234375,11.54385859375,6.98260234375,11.54385859375,7.41730234375C11.54565859375,7.85029234375,11.19415859375,8.201732343749999,10.76120859375,8.19990234375ZM8.50026859375,9.24339234375C8.06542859375,9.24339234375,7.71759859375,8.89556234375,7.71759859375,8.46079234375C7.71759859375,8.02602234375,8.06542859375,7.76513234375,8.50026859375,7.67819234375C8.93510859375,7.67819234375,9.28293859375,8.02602234375,9.28293859375,8.46079234375C9.28293859375,8.89556234375,8.93510859375,9.24339234375,8.50026859375,9.24339234375ZM1.89160859375,9.33071234375C1.63071859375,9.15683234375,1.4568385937500001,8.89594234375,1.4568385937500001,8.63506234375C1.4568385937500001,8.20021234375,1.80466859375,7.85245234375,2.32637859375,7.85238234375C2.75936859375,7.85059234375,3.11080859375,8.20207234375,3.10897859375,8.63506234375C3.10897859375,8.89588234375,2.93509859375,9.15684234375,2.67420859375,9.33071234375C2.4133885937499997,9.50459234375,2.15249859375,9.50459234375,1.89160859375,9.33071234375ZM11.97865859375,10.37396234375C11.54565859375,10.37571234375,11.19415859375,10.02423234375,11.19595859375,9.59122234375C11.19415859375,9.15822234375,11.54565859375,8.80676234375,11.97865859375,8.80855234375C12.41345859375,8.80855234375,12.76125859375,9.15645234375,12.76125859375,9.59122234375C12.76125859375,10.02599234375,12.41345859375,10.37396234375,11.97865859375,10.37396234375ZM3.45687859375,13.07000234375C2.84815859375,13.07000234375,2.4133885937499997,12.54830234375,2.4133885937499997,12.02650234375C2.4133885937499997,11.41780234375,2.84815859375,10.98310234375,3.45687859375,10.98310234375C4.06559859375,10.98310234375,4.50036859375,11.50480234375,4.50036859375,12.02650234375C4.50036859375,12.63510234375,3.97858859375,13.07000234375,3.45687859375,13.07000234375Z"
                fill="currentColor"/>
        </g>
    </g>
</svg>