<svg xmlns="http://www.w3.org/2000/svg" xmlns:xlink="http://www.w3.org/1999/xlink" fill="none" version="1.1" width="14"
    height="14" viewBox="0 0 14 14">
    <defs>
        <clipPath id="master_svg0_53_7825">
            <rect x="0" y="0" width="14" height="14" rx="0" />
        </clipPath>
    </defs>
    <g clip-path="url(#master_svg0_53_7825)">
        <g>
            <path
                d="M2.704479521484375,3.21122390625Q2.501259521484375,3.41444390625,2.255349521484375,3.51172390625L2.255349521484375,10.48813390625Q2.504029521484375,10.58467390625,2.707189521484375,10.78784390625Q2.913309521484375,10.99395390625,3.009689521484375,11.24695390625L8.624139521484375,11.24695390625C8.893469521484375,11.24695390625,9.111819521484374,11.46525390625,9.111819521484374,11.73455390625C9.111819521484374,12.00395390625,8.893469521484375,12.22225390625,8.624139521484375,12.22225390625L3.003199521484375,12.22225390625Q2.905789521484375,12.46645390625,2.704249521484375,12.66715390625Q2.315699521484375,13.05405390625,1.767669521484375,13.05405390625Q1.2196405214843749,13.05405390625,0.8310875214843749,12.66715390625Q0.441009521484375,12.27875390625,0.441009521484375,11.72735390625Q0.441009521484375,11.17495390625,0.828141521484375,10.78784390625Q1.031306521484375,10.58467390625,1.279987521484375,10.48813390625L1.279987521484375,3.51259390625Q1.033828521484375,3.41605390625,0.8310885214843751,3.21417390625Q0.441009521484375,2.82575390625,0.441009521484375,2.27441390625Q0.441009521484375,1.7263839062500002,0.827908521484375,1.33783190625Q1.216326521484375,0.94775390625,1.767669521484375,0.94775390625Q2.315699521484375,0.94775390625,2.704249521484375,1.33465290625Q2.908769521484375,1.53829890625,3.006049521484375,1.7867309062499999L9.989679521484375,1.7867309062499999Q10.086219521484376,1.54057290625,10.288099521484375,1.33783190625Q10.676509521484375,0.94775390625,11.227809521484374,0.94775390625Q11.775909521484374,0.94775390625,12.164409521484375,1.33465290625Q12.554509521484375,1.72307090625,12.554509521484375,2.27441390625L12.554509521484375,2.2761539062500002Q12.548309521484375,2.82317390625,12.162209521484375,3.21099390625Q11.960209521484375,3.41387390625,11.715509521484375,3.51124390625L11.715509521484375,6.83092390625C11.715509521484375,7.10026390625,11.497209521484375,7.31860390625,11.227809521484374,7.31860390625C10.958509521484375,7.31860390625,10.740209521484376,7.10026390625,10.740209521484376,6.83092390625L10.740209521484376,3.51259390625Q10.494009521484376,3.41605390625,10.291279521484375,3.21417390625Q10.086759521484375,3.01052390625,9.989469521484375,2.76209390625L3.004989521484375,2.76209390625Q2.907699521484375,3.00800390625,2.704479521484375,3.21122390625ZM1.423605521484375,2.27441390625Q1.423605521484375,2.61847390625,1.767669521484375,2.61847390625Q2.111729521484375,2.61847390625,2.111729521484375,2.27441390625Q2.111729521484375,1.9303489062499999,1.767669521484375,1.9303489062499999Q1.625739521484375,1.9303489062499999,1.524669521484375,2.03141390625Q1.423605521484375,2.13248390625,1.423605521484375,2.27441390625ZM10.883809521484375,2.27441390625Q10.883809521484375,2.41634390625,10.984909521484376,2.51741390625Q11.085909521484375,2.61847390625,11.227809521484374,2.61847390625Q11.571909521484375,2.61847390625,11.571909521484375,2.27441390625Q11.571909521484375,1.9303489062499999,11.227809521484374,1.9303489062499999Q11.085909521484375,1.9303489062499999,10.984909521484376,2.03141390625Q10.883809521484375,2.13248390625,10.883809521484375,2.27441390625ZM3.001339521484375,5.56936390625L3.001339521484375,5.09821390625C3.001339521484375,4.52757390625,3.463929521484375,4.06498390625,4.0345595214843755,4.06498390625L8.953739521484374,4.06498390625C9.524369521484376,4.06498390625,9.986959521484374,4.52757390625,9.986959521484374,5.09821390625L9.986959521484374,5.56936390625C9.986959521484374,6.13999390625,9.524369521484376,6.60258390625,8.953739521484374,6.60258390625L4.0345595214843755,6.60258390625C3.463929521484375,6.60258390625,3.001339521484375,6.13999390625,3.001339521484375,5.56936390625ZM9.011589521484375,5.62722390625L9.011589521484375,5.04758390625L3.983929521484375,5.04758390625L3.983929521484375,5.62722390625L9.011589521484375,5.62722390625ZM3.001339521484375,8.910803906249999L3.001339521484375,8.439653906250001C3.001339521484375,7.86902390625,3.463929521484375,7.40643390625,4.0345595214843755,7.40643390625L7.969069521484375,7.40643390625C8.152819521484375,7.40643390625,8.301769521484374,7.55538390625,8.301769521484374,7.73913390625L8.301769521484374,8.06821390625C8.301769521484374,8.07020390625,8.303389521484375,8.07182390625,8.305389521484376,8.07182390625C8.307379521484375,8.07182390625,8.308999521484374,8.073443906249999,8.308999521484374,8.075443906250001L8.308999521484374,9.26778390625C8.308999521484374,9.26978390625,8.307379521484375,9.27140390625,8.305389521484376,9.27140390625C8.303389521484375,9.27140390625,8.301769521484374,9.27302390625,8.301769521484374,9.27501390625L8.301769521484374,9.60771390625C8.301769521484374,9.79345390625,8.151199521484376,9.94402390625,7.965459521484375,9.94402390625L4.0345595214843755,9.94402390625C3.463929521484375,9.94402390625,3.001339521484375,9.48143390625,3.001339521484375,8.910803906249999ZM11.912009521484375,12.95645390625L11.912009521484375,8.81942390625L12.932809521484375,8.81942390625C13.213609521484376,8.81942390625,13.441209521484375,8.591833906249999,13.441209521484375,8.311083906250001C13.441209521484375,8.03032390625,13.213609521484376,7.80273390625,12.932809521484375,7.80273390625L9.725719521484375,7.80273390625C9.444969521484374,7.80273390625,9.217379521484375,8.03032390625,9.217379521484375,8.311083906250001C9.217379521484375,8.591833906249999,9.444969521484374,8.81942390625,9.725719521484375,8.81942390625L10.746509521484375,8.81942390625L10.746509521484375,12.95645390625C10.746509521484375,13.27825390625,11.007409521484375,13.53915390625,11.329309521484374,13.53915390625C11.651109521484376,13.53915390625,11.912009521484375,13.27825390625,11.912009521484375,12.95645390625ZM7.991799521484375,8.96143390625L7.991799521484375,8.38179390625L3.983929521484375,8.38179390625L3.983929521484375,8.96143390625L7.991799521484375,8.96143390625ZM1.4236045214843749,11.73455390625Q1.4236045214843749,12.07865390625,1.767669521484375,12.07865390625Q2.111729521484375,12.07865390625,2.111729521484375,11.73455390625Q2.111729521484375,11.39055390625,1.767669521484375,11.39055390625Q1.625739521484375,11.39055390625,1.524669521484375,11.49165390625Q1.4236045214843749,11.59265390625,1.4236045214843749,11.73455390625Z"
                fill="currentColor"/>
        </g>
    </g>
</svg>