<svg t="1750059929737" class="icon" viewBox="0 0 1024 1024" version="1.1"
    xmlns="http://www.w3.org/2000/svg" p-id="14169" xmlns:xlink="http://www.w3.org/1999/xlink"
    width="200" height="200">
    <path
        d="M767.969998 543.978995a223.990998 223.990998 0 0 1 179.192998 358.384996l3.456 2.944 63.996999 63.998a31.999 31.999 0 0 1-45.309999 45.309999l-63.998-63.996999a32.255 32.255 0 0 1-3.008-3.52 223.990998 223.990998 0 1 1-134.329998-403.119996z m-511.979995 0a223.990998 223.990998 0 1 1 0 447.981995 223.990998 223.990998 0 0 1 0-447.981995z m0 63.996999a159.993998 159.993998 0 1 0 0 319.986997 159.993998 159.993998 0 0 0 0-319.986997z m511.979995 0a159.993998 159.993998 0 1 0 0 319.986997 159.993998 159.993998 0 0 0 0-319.986997zM255.990003 32a223.990998 223.990998 0 1 1 0 447.981995 223.990998 223.990998 0 0 1 0-447.981995z m511.979995 0a223.990998 223.990998 0 1 1 0 447.981995 223.990998 223.990998 0 0 1 0-447.981995zM255.990003 95.995999a159.993998 159.993998 0 1 0 0 319.987997 159.993998 159.993998 0 0 0 0-319.987997z m511.979995 0a159.993998 159.993998 0 1 0 0 319.987997 159.993998 159.993998 0 0 0 0-319.987997z"
        p-id="14170"></path>
</svg>