<svg xmlns="http://www.w3.org/2000/svg" xmlns:xlink="http://www.w3.org/1999/xlink" fill="none" version="1.1" width="14"
    height="14" viewBox="0 0 14 14">
    <defs>
        <clipPath id="master_svg0_53_9444">
            <rect x="0" y="0" width="14" height="14" rx="0" />
        </clipPath>
    </defs>
    <g clip-path="url(#master_svg0_53_9444)">
        <g>
            <path
                d="M4.05783505859375,6.93084890625Q4.06663505859375,7.16914890625,3.9002650585937504,7.34103890625Q3.73222505859375,7.51464890625,3.49062505859375,7.51185890625Q3.24827505859375,7.51283890625,3.08022505859375,7.33393890625Q2.91466505859375,7.15767890625,2.92804505859375,6.91734890625L2.92804505859375,0.70808690625Q2.92804505859375,0.47405990625,3.09150505859375,0.29969590625Q3.26032505859375,0.11962890625,3.49293505859375,0.11962890625Q3.72582505859375,0.11962890625,3.89257505859375,0.29351990625Q4.05783505859375,0.46585290625,4.05783505859375,0.70808690625L4.05783505859375,6.93084890625ZM11.13318505859375,4.04917890625Q11.39188505859375,4.52319890625,11.48068505859375,5.03115890625L11.23098505859375,4.82045890625L11.22598505859375,4.81677890625Q11.01728505859375,4.66162890625,10.75888505859375,4.69186890625Q10.50058505859375,4.72209890625,10.33328505859375,4.92126890625L10.33148505859375,4.92346890625L10.32968505859375,4.92571890625Q10.16898505859375,5.12854890625,10.19458505859375,5.38601890625Q10.22028505859375,5.64348890625,10.41768505859375,5.81068890625L11.73348505859375,6.89498890625Q11.90448505859375,7.03636890625,12.12658505859375,7.03806890625Q12.35408505859375,7.03658890625,12.53098505859375,6.89813890625L13.86008505859375,5.81297890625Q14.06068505859375,5.64951890625,14.09138505859375,5.39235890625Q14.12208505859375,5.13519890625,13.96548505859375,4.92893890625L13.96398505859375,4.92698890625L13.96248505859375,4.92507890625Q13.79718505859375,4.71820890625,13.53418505859375,4.68742890625Q13.27128505859375,4.65664890625,13.06268505859375,4.81976890625L12.76608505859375,5.06185890625Q12.60598505859375,3.45710890625,11.41778505859375,2.29866890625Q10.08468505859375,0.99903890625,8.22294505859375,1.00735390625Q7.95980505859375,1.00657790625,7.77269505859375,1.19368890625Q7.58557505859375,1.38080890625,7.58635505859375,1.64542890625Q7.58635505859375,1.91002890625,7.77261505859375,2.0964789062499998Q7.958925058593749,2.28296890625,8.22384505859375,2.28296890625Q9.10463505859375,2.28447890625,9.86668505859375,2.72686890625Q10.62868505859375,3.16925890625,11.06688505859375,3.93368890625L11.13318505859375,4.04917890625ZM5.27415505859375,6.33243890625L5.27415505859375,6.36711890625L5.07646505859375,6.36940890625Q4.83486505859375,6.37219890625,4.66682505859375,6.19858890625Q4.50045505859375,6.02670890625,4.50925505859375,5.78839890625L4.50925505859375,1.91230890625Q4.50925505859375,1.67832890625,4.67304505859375,1.50382890625Q4.84197505859375,1.32384890625,5.07415505859375,1.32384890625Q5.31579505859375,1.32384890625,5.48021505859375,1.49947890625Q5.63904505859375,1.66914890625,5.63904505859375,1.91230890625L5.63904505859375,5.77529890625Q5.64867505859375,6.01371890625,5.48490505859375,6.18834890625Q5.39165505859375,6.28777890625,5.27415505859375,6.33243890625ZM1.93592505859375,6.38087890625Q2.50081505859375,6.38087890625,2.50081505859375,5.79178890625L2.50081505859375,1.92946890625Q2.51224505859375,1.68457890625,2.34495505859375,1.50992890625Q2.17831505859375,1.33594890625,1.93592505859375,1.33594890625L1.93037505859375,1.33594890625L1.92482505859375,1.33625890625Q1.37102505859375,1.36701890625,1.37102505859375,1.92440890625L1.37102505859375,5.78636890625Q1.35764505859375,6.02668890625,1.52321505859375,6.20294890625Q1.69126505859375,6.38184890625,1.93592505859375,6.38087890625ZM0.56807605859375,5.37137890625L0.56807705859375,5.33769890625Q0.69102705859375,5.29355890625,0.78741705859375,5.19074890625Q0.9561150585937499,5.01081890625,0.93297505859375,4.77124890625L0.93297505859375,3.04264890625Q0.93297505859375,2.45419890625,0.36808105859374995,2.45419890625Q0.13546505859375002,2.45419890625,-0.03334894140625,2.63425890625Q-0.19681419140625,2.80862890625,-0.19681419140625,3.04264890625L-0.19681419140625,4.77764890625Q-0.21019634140625,5.01797890625,-0.04462994140625001,5.19422890625Q0.12342105859375002,5.37313890625,0.36887305859374997,5.37216890625L0.56807605859375,5.37137890625ZM6.81906505859375,5.33015890625L6.81906505859375,5.37137890625L6.61985505859375,5.37216890625Q6.37440505859375,5.37313890625,6.20635505859375,5.19422890625Q6.04078505859375,5.01797890625,6.05417505859375,4.77764890625L6.05417505859375,3.04264890625Q6.05417505859375,2.80862890625,6.21763505859375,2.63425890625Q6.38645505859375,2.45419890625,6.61906505859375,2.45419890625Q6.86027505859375,2.45419890625,7.02481505859375,2.62973890625Q7.18396505859375,2.79953890625,7.18396505859375,3.04264890625L7.18396505859375,4.77649890625Q7.19541505859375,5.01283890625,7.02785505859375,5.18776890625Q6.93542505859375,5.28426890625,6.81906505859375,5.33015890625ZM14.12628505859375,12.90422890625Q14.20138505859375,13.13432890625,14.09898505859375,13.35862890625Q13.98918505859375,13.59892890625,13.74108505859375,13.68952890625L13.72768505859375,13.69452890625L13.71368505859375,13.69742890625Q13.59218505859375,13.72302890625,13.46988505859375,13.70152890625Q13.07618505859375,13.69362890625,12.90708505859375,13.33122890625L12.08528505859375,11.56202890625L9.86008505859375,11.56202890625L9.03803505859375,13.33162890625Q8.92649505859375,13.57032890625,8.67979505859375,13.66292890625Q8.43309505859375,13.75542890625,8.19207505859375,13.64902890625L8.15788505859375,13.63392890625L8.15627505859375,13.63232890625Q8.13188505859375,13.62142890625,8.11174505859375,13.60722890625Q8.01976505859375,13.55122890625,7.954945058593751,13.47462890625Q7.928705058593749,13.50832890625,7.89711505859375,13.53992890625Q7.70966505859375,13.72702890625,7.44565505859375,13.72592890625Q5.59589505859375,13.72592890625,4.26477505859375,12.43832890625Q3.07736505859375,11.28972890625,2.89659505859375,9.69160890625L2.59549505859375,9.93763890625L2.59220505859375,9.94009890625Q2.41655505859375,10.07198890625,2.19697505859375,10.07753890625L2.18611505859375,10.07780890625L2.17529505859375,10.07690890625Q1.8915750585937499,10.05322890625,1.70239505859375,9.84045890625L1.69726505859375,9.83467890625L1.69258505859375,9.82852890625Q1.53595505859375,9.62227890625,1.56664505859375,9.36510890625Q1.59734505859375,9.10794890625,1.79612505859375,8.94601890625L3.13245505859375,7.82795890625Q3.53560505859375,7.48621890625,3.9398450585937503,7.82888890625L5.21825505859375,8.92841890625Q5.39452505859375,9.00917890625,5.49901505859375,9.17601890625L5.50087505859375,9.17898890625L5.50263505859375,9.18201890625Q5.63437505859375,9.40973890625,5.56699505859375,9.66404890625Q5.49961505859375,9.91835890625,5.27291505859375,10.05066890625Q5.04599505859375,10.18402890625,4.78983505859375,10.11545890625Q4.55487505859375,10.05255890625,4.42338505859375,9.85410890625L4.20075505859375,9.67078890625Q4.37224505859375,10.70202890625,5.16135505859375,11.46252890625Q6.12347505859375,12.38982890625,7.45771505859375,12.38982890625L7.46051505859375,12.38982890625L7.46341505859375,12.38982890625C7.47473505859375,12.38982890625,7.48603505859375,12.39072890625,7.49719505859375,12.39262890625Q7.75521505859375,12.42122890625,7.925945058593751,12.62112890625Q7.9333450585937495,12.62972890625,7.9404050585937505,12.63852890625L10.36918505859375,7.29287890625L10.37448505859375,7.28388890625Q10.56528505859375,6.95862890625,10.94238505859375,6.95862890625Q11.31948505859375,6.95862890625,11.51038505859375,7.28388890625L11.51508505859375,7.29193890625L14.06208505859375,12.73852890625Q14.11778505859375,12.81252890625,14.12628505859375,12.90422890625ZM11.56798505859375,10.25012890625L10.45058505859375,10.25012890625L11.00928505859375,9.07824890625L11.56798505859375,10.25012890625Z"
                fill="currentColor"/>
        </g>
    </g>
</svg>