<svg xmlns="http://www.w3.org/2000/svg" xmlns:xlink="http://www.w3.org/1999/xlink" fill="none" version="1.1" width="14"
    height="14" viewBox="0 0 14 14">
    <defs>
        <clipPath id="master_svg0_130_15757">
            <rect x="0" y="0" width="14" height="14" rx="0" />
        </clipPath>
    </defs>
    <g clip-path="url(#master_svg0_130_15757)">
        <g>
            <path
                d="M11.99306240234375,13.384325625L6.62365240234375,13.384325625C5.77827240234375,13.384785625,5.09271293640175,12.699585625000001,5.09271240234375,11.854205624999999L5.09271240234375,6.477385625C5.09271240234375,5.632442625,5.77788940234375,4.947265625,6.62283240234375,4.947265625L11.99224240234375,4.947265625C12.83762240234375,4.946810608,13.52318240234375,5.632000625,13.52318240234375,6.477385625L13.52318240234375,11.855025625C13.52273240234375,12.699765625000001,12.837802402343751,13.384325625,11.99306240234375,13.384325625ZM6.62365240234375,5.989025625C6.34198240234375,5.989025625,6.11352240234375,6.2171256249999995,6.1130624023437505,6.498795625L6.1130624023437505,11.875615625C6.1130624023437505,12.157265625,6.34118240234375,12.386205624999999,6.62365240234375,12.386205624999999L11.99306240234375,12.386205624999999C12.27473240234375,12.385755625,12.50283240234375,12.157285625,12.50283240234375,11.875615625L12.50283240234375,6.477385625C12.490922402343749,6.204115625,12.26577240234375,5.988775625,11.99224240234375,5.989025625L6.62283240234375,5.989025625L6.62365240234375,5.989025625Z"
                fill="currentColor" fill-opacity="1" style="mix-blend-mode:passthrough" />
        </g>
        <g>
            <path
                d="M10.052005143127442,7.156997722784424L10.052005143127442,7.121586322784424L8.84717514312744,7.121586322784424L7.395295143127441,11.010296322784423L7.395295143127441,11.081116322784425L8.386824143127441,11.081116322784425L8.719525143127441,10.125816322784424L10.214235143127441,10.125816322784424L10.512355143127442,11.081116322784425L11.503885143127441,11.081116322784425L10.052005143127442,7.156997722784424ZM9.895535143127441,9.324526322784424L8.960825143127442,9.324526322784424L9.428595143127442,7.971467322784424L9.895535143127441,9.324526322784424Z"
                fill="currentColor" fill-opacity="1" style="mix-blend-mode:passthrough" />
        </g>
        <g>
            <path
                d="M2.783116103515625,6.749761406037807L1.732916103515625,6.749761406037807Q1.478256103515625,6.749761406037807,1.298226103515625,6.569671406037807Q1.118241103515625,6.389631406037807,1.118241103515625,6.135081406037807L1.118241103515625,1.7642114060378076Q1.118241103515625,1.5095514060378075,1.298326103515625,1.3295214060378076Q1.478366103515625,1.1495414060378075,1.732916103515625,1.1495414060378075L2.743846103515625,1.1495414060378075Q2.929786103515625,1.3311014060378075,3.191386103515625,1.3311014060378075Q3.457426103515625,1.3311014060378075,3.645226103515625,1.1433114060378076Q3.833016103515625,0.9555234060378075,3.833016103515625,0.6894784060378074Q3.833016103515625,0.42343440603780746,3.645186103515625,0.23560940603780747Q3.457146103515625,0.047679923037807465,3.191386103515625,0.047851406037807465Q2.956836103515625,0.047851406037807465,2.783116103515625,0.19380340603780746L1.732916103515625,0.19380340603780746Q1.0824041035156249,0.19380340603780746,0.6224201035156249,0.6538654060378075Q0.162506103515625,1.1138614060378074,0.162506103515625,1.7642114060378076L0.162506103515625,6.134731406037807Q0.162506103515625,6.785301406037807,0.6224291035156251,7.245221406037808Q1.082351103515625,7.705141406037807,1.732916103515625,7.705141406037807L2.743846103515625,7.705141406037807Q2.929786103515625,7.886711406037808,3.191386103515625,7.886711406037808Q3.457426103515625,7.886711406037808,3.645226103515625,7.698921406037807Q3.833016103515625,7.511121406037807,3.833016103515625,7.245081406037808Q3.833016103515625,6.979041406037807,3.644916103515625,6.790941406037807Q3.456696103515625,6.603801406037808,3.191386103515625,6.603801406037808Q2.956846103515625,6.603801406037808,2.783116103515625,6.749761406037807ZM5.359786103515625,1.1433114060378076Q5.171996103515625,0.9555244060378074,5.171996103515625,0.6894784060378074Q5.171996103515625,0.42343240603780746,5.359786103515625,0.23564240603780748Q5.547576103515625,0.047851406037807465,5.813626103515625,0.047851406037807465Q6.047966103515625,0.04770059803780746,6.221876103515625,0.19380340603780746L7.272096103515625,0.19380340603780746Q7.922606103515625,0.19380340603780746,8.382586103515624,0.6538664060378074Q8.842506103515625,1.1138614060378074,8.842506103515625,1.7642114060378076L8.842506103515625,5.002931406037807L7.886766103515625,5.002931406037807L7.886766103515625,1.7642114060378076Q7.886766103515625,1.5096614060378075,7.706786103515625,1.3296214060378075Q7.526756103515625,1.1495414060378075,7.272096103515625,1.1495414060378075L6.261156103515625,1.1495414060378075Q6.075226103515625,1.3311014060378075,5.813626103515625,1.3311014060378075Q5.547576103515625,1.3311014060378075,5.359786103515625,1.1433114060378076Z"
                fill-rule="evenodd" fill="currentColor" fill-opacity="1" />
        </g>
        <g>
            <path
                d="M6.193248920898437,3.4562340625L4.620108920898438,2.1734680625Q4.3130599208984375,1.9231990625,3.9552979208984373,2.0931447625Q3.5975191354754377,2.2630980625,3.5975189208984375,2.6592790625L3.5975189208984375,5.0843440625Q3.5975189208984375,5.4682740625,3.9396649208984376,5.6426540625Q4.281815920898437,5.817034062499999,4.592436920898438,5.5914240625L6.165688920898438,4.4490440625000005Q6.414998920898437,4.2676140625,6.4236489208984375,3.9594640625Q6.432308920898437,3.6511440625000002,6.193248920898437,3.4562340625Z"
                fill-rule="evenodd" fill="currentColor" fill-opacity="1" />
        </g>
    </g>
</svg>