<svg xmlns="http://www.w3.org/2000/svg" xlink="http://www.w3.org/1999/xlink" fill="none"
    version="1.1" width="20" height="20" viewBox="0 0 20 20">
    <defs>
        <clipPath id="master_svg0_2_00735">
            <rect x="0" y="0" width="20" height="20" rx="0" />
        </clipPath>
    </defs>
    <g clipPath="url(#master_svg0_2_00735)">
        <g>
            <path
                d="M9.9999984375,12.556642499999999C11.5937484375,12.556642499999999,13.0781284375,11.730472500000001,14.4824484375,10.0000025C13.0761684375,8.2695325,11.5937484375,7.4433625,9.9999984375,7.4433625C8.4062484375,7.4433625,6.9218784375,8.2695325,5.5175784375,10.0000025C6.9218784375,11.730472500000001,8.4062484375,12.556642499999999,9.9999984375,12.556642499999999ZM9.9999984375,13.7734425C7.943358437500001,13.7734425,6.0664084375,12.7265625,4.3652344375,10.6347625C4.0644531375,10.2656225,4.0644531375,9.7363325,4.3652344375,9.3671825C6.0664084375,7.2734425,7.943358437500001,6.2265625,9.9999984375,6.2265625C12.0566384375,6.2265625,13.9335984375,7.2734425,15.6347484375,9.3652325C15.9355484375,9.7343725,15.9355484375,10.2636725,15.6347484375,10.6328125C13.9335984375,12.7265625,12.0566384375,13.7734425,9.9999984375,13.7734425Z"
                fill="#306EFD" fillOpacity="1" />
        </g>
        <g>
            <path
                d="M9.99999671875,10.54687125C10.30273671875,10.54687125,10.54687671875,10.30273125,10.54687671875,10.00000125C10.54687671875,9.69922125,10.30273671875,9.45312125,9.99999671875,9.45312125C9.69726671875,9.45312125,9.45312671875,9.69726125,9.45312671875,10.00000125C9.45312671875,10.30078125,9.69726671875,10.54687125,9.99999671875,10.54687125ZM9.99999671875,11.95117125C9.30273671875,11.95117125,8.65820271875,11.58008125,8.30859371875,10.97656125C7.95898441875,10.37305125,7.95898441875,9.62890125,8.30859371875,9.02539025C8.65820271875,8.42187525,9.30273671875,8.05078125,9.99999671875,8.05078125C11.07812671875,8.05078125,11.95312671875,8.92382825,11.95312671875,10.00195125C11.95312671875,11.07812125,11.07812671875,11.95117125,9.99999671875,11.95117125Z"
                fill="#306EFD" fillOpacity="1" />
        </g>
        <g>
            <path
                d="M2.65625,17.3438L2.65625,14.5508C2.65625,14.1621,2.3418,13.8477,1.953125,13.8477C1.5644529999999999,13.8477,1.25,14.1621,1.25,14.5508L1.25,17.5781C1.25,18.2246,1.775391,18.75,2.42188,18.75L5.44922,18.75C5.83789,18.75,6.15234,18.4355,6.15234,18.0469C6.15234,17.6582,5.83789,17.3438,5.44922,17.3438L2.65625,17.3438ZM2.65625,2.65625L5.44922,2.65625C5.83789,2.65625,6.15234,2.3418,6.15234,1.953125C6.15234,1.5644529999999999,5.83789,1.25,5.44922,1.25L2.42188,1.25C1.775391,1.25,1.25,1.775391,1.25,2.42188L1.25,5.44922C1.25,5.83789,1.5644529999999999,6.15234,1.953125,6.15234C2.3418,6.15234,2.65625,5.83789,2.65625,5.44922L2.65625,2.65625ZM17.3438,2.65625L17.3438,5.44922C17.3438,5.83789,17.6582,6.15234,18.0469,6.15234C18.4355,6.15234,18.75,5.83789,18.75,5.44922L18.75,2.42188C18.75,1.775391,18.2246,1.25,17.5781,1.25L14.5508,1.25C14.1621,1.25,13.8477,1.5644529999999999,13.8477,1.953125C13.8477,2.3418,14.1621,2.65625,14.5508,2.65625L17.3438,2.65625ZM17.3438,17.3438L14.5508,17.3438C14.1621,17.3438,13.8477,17.6582,13.8477,18.0469C13.8477,18.4355,14.1621,18.75,14.5508,18.75L17.5781,18.75C18.2246,18.75,18.75,18.2246,18.75,17.5781L18.75,14.5508C18.75,14.1621,18.4355,13.8477,18.0469,13.8477C17.6582,13.8477,17.3438,14.1621,17.3438,14.5508L17.3438,17.3438Z"
                fill="#306EFD" fillOpacity="1" />
        </g>
    </g>
</svg>