<!-- <svg width="24" height="24" viewBox="0 0 24 24" fill="none" xmlns="http://www.w3.org/2000/svg">
    <path
        d="M12 15C13.6569 15 15 13.6569 15 12C15 10.3431 13.6569 9 12 9C10.3431 9 9 10.3431 9 12C9 13.6569
10.3431 15 12 15Z"
        stroke="#667085" stroke-width="2" stroke-linecap="round" stroke-linejoin="round" />
    <path
        d="M18.7273 14.7273C18.6063 15.0015 18.5702 15.3056 18.6236 15.6005C18.6771 15.8954 18.8177 16.1676
19.0273 16.3818L19.0818 16.4364C19.2509 16.6052 19.385 16.8057 19.4765 17.0265C19.568 17.2472
19.6151 17.4838 19.6151 17.7227C19.6151 17.9617 19.568 18.1983 19.4765 18.419C19.385 18.6397 19.2509
18.8402 19.0818 19.0091C18.913 19.1781 18.7124 19.3122 18.4917 19.4037C18.271 19.4952 18.0344
19.5423 17.7955 19.5423C17.5565 19.5423 17.3199 19.4952 17.0992 19.4037C16.8785 19.3122 16.678
19.1781 16.5091 19.0091L16.4545 18.9545C16.2403 18.745 15.9682 18.6044 15.6733 18.5509C15.3784
18.4974 15.0742 18.5335 14.8 18.6545C14.5311 18.7698 14.3018 18.9611 14.1403 19.205C13.9788 19.4489
13.8921 19.7347 13.8909 20.0273V20.1818C13.8909 20.664 13.6994 21.1265 13.3584 21.4675C13.0174
21.8084 12.5549 22 12.0727 22C11.5905 22 11.1281 21.8084 10.7871 21.4675C10.4461 21.1265 10.2545
20.664 10.2545 20.1818V20.1C10.2475 19.7991 10.1501 19.5073 9.97501 19.2625C9.79991 19.0176 9.55521
18.8312 9.27273 18.7273C8.99853 18.6063 8.69437 18.5702 8.39947 18.6236C8.10456 18.6771 7.83244
18.8177 7.61818 19.0273L7.56364 19.0818C7.39478 19.2509 7.19425 19.385 6.97353 19.4765C6.7528 19.568
6.51621 19.6151 6.27727 19.6151C6.03834 19.6151 5.80174 19.568 5.58102 19.4765C5.36029 19.385
5.15977 19.2509 4.99091 19.0818C4.82186 18.913 4.68775 18.7124 4.59626 18.4917C4.50476 18.271
4.45766 18.0344 4.45766 17.7955C4.45766 17.5565 4.50476 17.3199 4.59626 17.0992C4.68775 16.8785
4.82186 16.678 4.99091 16.5091L5.04545 16.4545C5.25503 16.2403 5.39562 15.9682 5.4491
15.6733C5.50257 15.3784 5.46647 15.0742 5.34545 14.8C5.23022 14.5311 5.03887 14.3018 4.79497
14.1403C4.55107 13.9788 4.26526 13.8921 3.97273 13.8909H3.81818C3.33597 13.8909 2.87351 13.6994
2.53253 13.3584C2.19156 13.0174 2 12.5549 2 12.0727C2 11.5905 2.19156 11.1281 2.53253
10.7871C2.87351 10.4461 3.33597 10.2545 3.81818 10.2545H3.9C4.2009 10.2475 4.49273 10.1501 4.73754
9.97501C4.98236 9.79991 5.16883 9.55521 5.27273 9.27273C5.39374 8.99853 5.42984 8.69437 5.37637
8.39947C5.3229 8.10456 5.18231 7.83244 4.97273 7.61818L4.91818 7.56364C4.74913 7.39478 4.61503
7.19425 4.52353 6.97353C4.43203 6.7528 4.38493 6.51621 4.38493 6.27727C4.38493 6.03834 4.43203
5.80174 4.52353 5.58102C4.61503 5.36029 4.74913 5.15977 4.91818 4.99091C5.08704 4.82186 5.28757
4.68775 5.50829 4.59626C5.72901 4.50476 5.96561 4.45766 6.20455 4.45766C6.44348 4.45766 6.68008
4.50476 6.9008 4.59626C7.12152 4.68775 7.32205 4.82186 7.49091 4.99091L7.54545 5.04545C7.75971
5.25503 8.03183 5.39562 8.32674 5.4491C8.62164 5.50257 8.9258 5.46647 9.2 5.34545H9.27273C9.54161
5.23022 9.77093 5.03887 9.93245 4.79497C10.094 4.55107 10.1807 4.26526 10.1818
3.97273V3.81818C10.1818 3.33597 10.3734 2.87351 10.7144 2.53253C11.0553 2.19156 11.5178 2 12
2C12.4822 2 12.9447 2.19156 13.2856 2.53253C13.6266 2.87351 13.8182 3.33597 13.8182
3.81818V3.9C13.8193 4.19253 13.906 4.47834 14.0676 4.72224C14.2291 4.96614 14.4584 5.15749 14.7273
5.27273C15.0015 5.39374 15.3056 5.42984 15.6005 5.37637C15.8954 5.3229 16.1676 5.18231 16.3818
4.97273L16.4364 4.91818C16.6052 4.74913 16.8057 4.61503 17.0265 4.52353C17.2472 4.43203 17.4838
4.38493 17.7227 4.38493C17.9617 4.38493 18.1983 4.43203 18.419 4.52353C18.6397 4.61503 18.8402
4.74913 19.0091 4.91818C19.1781 5.08704 19.3122 5.28757 19.4037 5.50829C19.4952 5.72901 19.5423
5.96561 19.5423 6.20455C19.5423 6.44348 19.4952 6.68008 19.4037 6.9008C19.3122 7.12152 19.1781
7.32205 19.0091 7.49091L18.9545 7.54545C18.745 7.75971 18.6044 8.03183 18.5509 8.32674C18.4974
8.62164 18.5335 8.9258 18.6545 9.2V9.27273C18.7698 9.54161 18.9611 9.77093 19.205 9.93245C19.4489
10.094 19.7347 10.1807 20.0273 10.1818H20.1818C20.664 10.1818 21.1265 10.3734 21.4675
10.7144C21.8084 11.0553 22 11.5178 22 12C22 12.4822 21.8084 12.9447 21.4675 13.2856C21.1265 13.6266
20.664 13.8182 20.1818 13.8182H20.1C19.8075 13.8193 19.5217 13.906 19.2778 14.0676C19.0339 14.2291
18.8425 14.4584 18.7273 14.7273Z"
        stroke="#667085" stroke-width="2" stroke-linecap="round" stroke-linejoin="round" />
</svg> -->

<svg t="1750754773110" className="icon"
        viewBox="0 0 1024 1024" version="1.1" xmlns="http://www.w3.org/2000/svg" p-id="9208"
        xlink="http://www.w3.org/1999/xlink"  width="24" height="24">
        <path
            d="M511.913993 607.897867c-52.980346 0-95.983874-43.003528-95.983874-95.983874s43.003528-95.983874 95.983874-95.983874 95.983874 43.003528 95.983874 95.983874S564.894339 607.897867 511.913993 607.897867zM511.913993 479.919368c-17.545439 0-31.994625 14.449185-31.994625 31.994625s14.449185 31.994625 31.994625 31.994625 31.994625-14.449185 31.994625-31.994625S529.631446 479.919368 511.913993 479.919368z"
            fill="#575B66" p-id="9209" />
        <path
            d="M630.947757 960.010751c-9.976818 0-19.781623-4.816395-25.802117-13.073072L531.695616 846.309424c-13.589115 0.860071-25.974131 0.860071-39.563245 0l-73.450025 100.456241c-7.912649 10.836889-21.673778 15.653284-34.574836 11.868974-34.574836-9.804804-67.429531-23.393919-97.704015-40.251302-11.69696-6.536536-18.061482-19.609609-15.997312-32.854695l19.26558-123.334117c-9.804804-8.77272-19.093566-18.061482-27.866286-27.866286l-123.334117 19.26558c-13.073072 2.064169-26.318159-4.300353-32.854695-15.997312-16.857383-30.446498-30.446498-63.301193-40.251302-97.876029-3.612296-12.901058 1.032085-26.662187 11.868974-34.574836l100.456241-73.450025c-0.516042-6.880564-0.688056-13.417101-0.688056-19.781623s0.172014-12.901058 0.688056-19.781623l-100.456241-73.450025c-10.836889-7.912649-15.653284-21.673778-11.868974-34.574836 9.804804-34.574836 23.393919-67.429531 40.251302-97.704015 6.536536-11.69696 19.781623-18.061482 32.854695-15.997312l123.334117 19.26558c8.77272-9.804804 18.061482-19.093566 27.866286-27.866286l-19.26558-123.334117c-2.064169-13.245087 4.300353-26.318159 16.169326-32.854695 30.446498-16.857383 63.301193-30.446498 97.704015-40.251302 12.901058-3.612296 26.662187 1.032085 34.574836 11.868974l73.450025 100.456241c13.589115-0.860071 25.802117-0.860071 39.563245 0l73.450025-100.456241c7.912649-10.836889 21.673778-15.48127 34.574836-11.868974 34.402822 9.804804 67.257517 23.393919 97.704015 40.251302 11.69696 6.536536 18.061482 19.609609 15.997312 32.854695l-19.26558 123.334117c9.804804 8.77272 19.093566 18.061482 27.866286 27.694272l123.334117-19.26558c13.073072-2.064169 26.318159 4.300353 32.854695 15.997312 16.857383 30.446498 30.446498 63.301193 40.423316 97.876029 3.612296 12.901058-1.032085 26.662187-11.868974 34.574836L846.309424 492.13237c0.516042 6.880564 0.688056 13.417101 0.688056 19.781623 0 6.364522-0.172014 12.901058-0.688056 19.781623l100.456241 73.450025c10.836889 7.912649 15.48127 21.673778 11.868974 34.574836-9.804804 34.574836-23.393919 67.429531-40.423316 97.876029-6.536536 11.69696-19.437594 18.061482-32.854695 15.997312L762.194524 734.500252c-8.600706 9.804804-18.061482 19.093566-27.866286 27.694272l19.26558 123.334117c2.064169 13.245087-4.300353 26.318159-15.997312 32.854695-30.274483 16.857383-63.129179 30.446498-97.704015 40.251302C636.968251 959.494709 634.044011 960.010751 630.947757 960.010751zM337.147657 872.627583c13.933143 6.70855 28.554342 12.729044 43.51957 17.889467l70.525785-96.499916c6.70855-9.288762 18.061482-14.277171 29.414413-12.901058 20.641693 2.408198 42.143457 2.408198 62.613136 0 11.868974-1.376113 22.705863 3.612296 29.414413 12.901058l70.525785 96.499916c14.965228-5.160423 29.586427-11.180917 43.51957-17.889467l-18.40551-118.345708c-1.720141-11.352931 2.752226-22.877877 11.69696-29.930455 16.341341-13.073072 31.306568-27.866286 44.207626-44.207626 7.224593-8.944734 18.40551-13.589115 29.930455-11.69696l118.345708 18.40551c6.70855-13.933143 12.729044-28.554342 17.889467-43.51957l-96.499916-70.525785c-9.288762-6.70855-14.277171-18.061482-12.901058-29.414413 1.204099-10.320847 1.892155-20.641693 1.892155-31.306568s-0.688056-20.985721-1.892155-31.306568c-1.376113-11.352931 3.612296-22.705863 12.901058-29.414413l96.499916-70.525785c-5.160423-14.965228-11.180917-29.586427-17.889467-43.51957l-118.345708 18.40551c-11.352931 1.720141-22.877877-2.752226-29.930455-11.69696-12.901058-16.169326-27.694272-31.134554-44.207626-44.207626-8.944734-7.224593-13.417101-18.577524-11.69696-29.930455L686.852343 151.372417c-13.933143-6.70855-28.554342-12.729044-43.51957-17.889467l-70.525785 96.499916c-6.70855 9.288762-17.717453 14.449185-29.414413 12.901058-20.469679-2.408198-41.971443-2.408198-62.613136 0-11.524945 1.376113-22.705863-3.612296-29.586427-12.901058l-70.525785-96.499916c-14.965228 5.160423-29.586427 11.180917-43.51957 17.889467l18.40551 118.345708c1.720141 11.352931-2.752226 22.877877-11.69696 29.930455-16.341341 12.901058-31.134554 27.866286-44.207626 44.207626-7.224593 8.944734-18.577524 13.417101-29.930455 11.69696L151.372417 337.147657c-6.70855 13.933143-12.729044 28.554342-17.889467 43.51957l96.499916 70.525785c9.288762 6.70855 14.277171 18.061482 12.901058 29.586427-1.204099 10.148833-1.892155 20.641693-1.892155 31.134554 0 10.664875 0.688056 20.985721 1.892155 31.306568 1.376113 11.524945-3.612296 22.705863-12.901058 29.586427l-96.499916 70.525785c5.160423 14.965228 11.180917 29.586427 17.889467 43.51957l118.345708-18.40551c11.352931-1.720141 22.877877 2.752226 29.930455 11.69696 12.901058 16.341341 27.694272 31.134554 44.207626 44.207626 8.944734 7.224593 13.589115 18.577524 11.69696 29.930455L337.147657 872.627583z"
            fill="#575B66" p-id="9210" />
    </svg>