<svg t="1753760185750" className="icon" viewBox="0 0 1024 1024" version="1.1" xmlns="http://www.w3.org/2000/svg"
    p-id="3456" width="20" height="20">
    <path
        d="M1003.392 205.44a256 256 0 0 0-251.52-152.96 364.16 364.16 0 0 0-248.96 85.12A365.44 365.44 0 0 0 256.512 52.48a256 256 0 0 0-256 152.96 26.24 26.24 0 0 0 0 10.24v591.36a30.72 30.72 0 0 0 8.96 21.76 32.64 32.64 0 0 0 21.12 8.32 30.08 30.08 0 0 0 20.48-7.68c7.04-7.04 183.68-165.12 433.28-15.36a30.08 30.08 0 0 0 36.48-4.48 359.68 359.68 0 0 1 432.64 19.84 31.36 31.36 0 0 0 20.48 7.68 30.784 30.784 0 0 0 12.8 0 29.44 29.44 0 0 0 17.92-27.52V215.04a25.728 25.728 0 0 0-1.28-9.6z m-58.88 16v527.36a420.032 420.032 0 0 0-94.72-42.24 401.856 401.856 0 0 0-119.68-17.92 458.24 458.24 0 0 0-199.04 47.36V192.64a293.76 293.76 0 0 1 218.88-79.36 197.76 197.76 0 0 1 194.56 108.16zM472.192 192v545.28a426.88 426.88 0 0 0-316.16-30.08 401.216 401.216 0 0 0-92.8 40.96V221.44a200.32 200.32 0 0 1 192-108.16A294.4 294.4 0 0 1 472.192 192z"
        fill="#ffffff" p-id="3457" />
    <path
        d="M977.152 906.24a522.752 522.752 0 0 0-164.48-74.24 341.12 341.12 0 0 0-310.4 64 344.96 344.96 0 0 0-309.76-64 552.256 552.256 0 0 0-164.48 71.04 32.64 32.64 0 0 0-12.8 19.84 31.36 31.36 0 0 0 13.44 30.72 31.36 31.36 0 0 0 33.92 0c9.6-6.4 245.12-160.64 419.2 7.04a30.08 30.08 0 0 0 21.12 8.96 32 32 0 0 0 20.48-8.32 276.48 276.48 0 0 1 273.92-64 485.568 485.568 0 0 1 146.56 64 33.28 33.28 0 0 0 23.04 5.12 32.64 32.64 0 0 0 19.84-12.16 30.72 30.72 0 0 0-7.68-42.24l-1.92-5.76z"
        fill="#ffffff" p-id="3458" />
</svg>