<svg xmlns="http://www.w3.org/2000/svg" xmlns:xlink="http://www.w3.org/1999/xlink" fill="none"
    version="1.1" width="20" height="20" viewBox="0 0 20 20">
    <defs>
        <clipPath id="master_svg0_87_04604">
            <rect x="0" y="0" width="20" height="20" rx="0" />
        </clipPath>
    </defs>
    <g clip-path="url(#master_svg0_87_04604)">
        <g>
            <path
                d="M4.672217805328369,17.634455524826052L4.672217805328369,2.36555552482605L4.093337805328369,2.36555552482605C3.4266668053283693,2.36555552482605,2.887777805328369,2.90555552482605,2.887777805328369,3.57111552482605L2.887777805328369,16.428855524826048C2.887777805328369,17.09555552482605,3.4266668053283693,17.634455524826052,4.093337805328369,17.634455524826052L4.672217805328369,17.634455524826052ZM17.11217780532837,3.57111552482605C17.11217780532837,2.90444452482605,16.57337780532837,2.36555576324505,15.90667780532837,2.36555576324505L14.88997780532837,2.36555576324505L14.88997780532837,6.13777552482605L12.99667780532837,4.2588855248260495L11.108887805328369,6.104445524826049L11.10333780532837,2.36555552482605L6.012217805328369,2.36555552482605L6.012217805328369,17.63335552482605L15.90667780532837,17.63335552482605C16.57337780532837,17.63335552482605,17.11217780532837,17.093355524826052,17.11217780532837,16.42775552482605L17.11217780532837,3.57111552482605ZM14.927777805328368,9.93555552482605L8.531107805328368,9.93555552482605L8.531107805328368,10.79999552482605L14.927777805328368,10.79999552482605L14.927777805328368,9.93555552482605ZM14.927777805328368,11.66333552482605L8.531107805328368,11.66333552482605L8.531107805328368,12.52775552482605L14.927777805328368,12.52775552482605L14.927777805328368,11.66333552482605Z"
                fill="#0C7CFF" fill-opacity="1" style="mix-blend-mode:passthrough" />
        </g>
    </g>
</svg>