<svg t="1752111146563" class="icon" viewBox="0 0 1042 1024" version="1.1" xmlns="http://www.w3.org/2000/svg" p-id="2789"
    width="14" height="14">
    <path
        d="M276.019 825.14l-33.674-33.674 125.15-124.62 33.673 33.674zM189.05 985.818A130.718 130.718 0 1 1 319.768 855.1 130.718 130.718 0 0 1 189.05 985.819z m0-47.727a83.256 83.256 0 1 0-82.991-82.991 83.256 83.256 0 0 0 82.991 82.991z m5.568-390.297l12.197-46.136 164.392 38.977-12.197 46.136z m-76.892 57.272a106.059 106.059 0 1 1 106.059-106.06 106.059 106.059 0 0 1-106.06 106.06z m0-47.462a59.393 59.393 0 1 0-59.394-59.393 59.128 59.128 0 0 0 59.394 58.598zM568.476 250.3l47.197 7.16-38.712 208.67-46.666-7.159z m259.315 541.697l-31.022 36.325-154.316-125.415 31.022-36.06z m-229.618-495.03a130.718 130.718 0 1 1 130.718-130.718 130.718 130.718 0 0 1-130.718 130.717z m0-47.462a83.256 83.256 0 1 0-82.991-83.256 83.256 83.256 0 0 0 82.991 83.256z m303.329 759.648a130.983 130.983 0 1 1 132.574-130.718 130.718 130.718 0 0 1-132.574 130.718z m0-47.727a83.256 83.256 0 1 0-82.991-82.991 82.991 82.991 0 0 0 82.99 82.991z m-379.426-190.11A178.444 178.444 0 1 1 700.52 592.87a178.444 178.444 0 0 1-178.444 178.444z m0-47.462A130.983 130.983 0 1 0 391.358 592.87a130.983 130.983 0 0 0 130.718 130.983z"
        p-id="2790" fill="currentColor" ></path>
</svg>