<!-- <svg width="24" height="24" viewBox="0 0 24 24" fill="none" xmlns="http://www.w3.org/2000/svg">
    <path
        d="M12 15C13.6569 15 15 13.6569 15 12C15 10.3431 13.6569 9 12 9C10.3431 9 9 10.3431 9 12C9 13.6569 10.3431 15 12 15Z"
        stroke="#667085" stroke-width="2" stroke-linecap="round" stroke-linejoin="round" />
    <path
        d="M18.7273 14.7273C18.6063 15.0015 18.5702 15.3056 18.6236 15.6005C18.6771 15.8954 18.8177 16.1676 19.0273 16.3818L19.0818 16.4364C19.2509 16.6052 19.385 16.8057 19.4765 17.0265C19.568 17.2472 19.6151 17.4838 19.6151 17.7227C19.6151 17.9617 19.568 18.1983 19.4765 18.419C19.385 18.6397 19.2509 18.8402 19.0818 19.0091C18.913 19.1781 18.7124 19.3122 18.4917 19.4037C18.271 19.4952 18.0344 19.5423 17.7955 19.5423C17.5565 19.5423 17.3199 19.4952 17.0992 19.4037C16.8785 19.3122 16.678 19.1781 16.5091 19.0091L16.4545 18.9545C16.2403 18.745 15.9682 18.6044 15.6733 18.5509C15.3784 18.4974 15.0742 18.5335 14.8 18.6545C14.5311 18.7698 14.3018 18.9611 14.1403 19.205C13.9788 19.4489 13.8921 19.7347 13.8909 20.0273V20.1818C13.8909 20.664 13.6994 21.1265 13.3584 21.4675C13.0174 21.8084 12.5549 22 12.0727 22C11.5905 22 11.1281 21.8084 10.7871 21.4675C10.4461 21.1265 10.2545 20.664 10.2545 20.1818V20.1C10.2475 19.7991 10.1501 19.5073 9.97501 19.2625C9.79991 19.0176 9.55521 18.8312 9.27273 18.7273C8.99853 18.6063 8.69437 18.5702 8.39947 18.6236C8.10456 18.6771 7.83244 18.8177 7.61818 19.0273L7.56364 19.0818C7.39478 19.2509 7.19425 19.385 6.97353 19.4765C6.7528 19.568 6.51621 19.6151 6.27727 19.6151C6.03834 19.6151 5.80174 19.568 5.58102 19.4765C5.36029 19.385 5.15977 19.2509 4.99091 19.0818C4.82186 18.913 4.68775 18.7124 4.59626 18.4917C4.50476 18.271 4.45766 18.0344 4.45766 17.7955C4.45766 17.5565 4.50476 17.3199 4.59626 17.0992C4.68775 16.8785 4.82186 16.678 4.99091 16.5091L5.04545 16.4545C5.25503 16.2403 5.39562 15.9682 5.4491 15.6733C5.50257 15.3784 5.46647 15.0742 5.34545 14.8C5.23022 14.5311 5.03887 14.3018 4.79497 14.1403C4.55107 13.9788 4.26526 13.8921 3.97273 13.8909H3.81818C3.33597 13.8909 2.87351 13.6994 2.53253 13.3584C2.19156 13.0174 2 12.5549 2 12.0727C2 11.5905 2.19156 11.1281 2.53253 10.7871C2.87351 10.4461 3.33597 10.2545 3.81818 10.2545H3.9C4.2009 10.2475 4.49273 10.1501 4.73754 9.97501C4.98236 9.79991 5.16883 9.55521 5.27273 9.27273C5.39374 8.99853 5.42984 8.69437 5.37637 8.39947C5.3229 8.10456 5.18231 7.83244 4.97273 7.61818L4.91818 7.56364C4.74913 7.39478 4.61503 7.19425 4.52353 6.97353C4.43203 6.7528 4.38493 6.51621 4.38493 6.27727C4.38493 6.03834 4.43203 5.80174 4.52353 5.58102C4.61503 5.36029 4.74913 5.15977 4.91818 4.99091C5.08704 4.82186 5.28757 4.68775 5.50829 4.59626C5.72901 4.50476 5.96561 4.45766 6.20455 4.45766C6.44348 4.45766 6.68008 4.50476 6.9008 4.59626C7.12152 4.68775 7.32205 4.82186 7.49091 4.99091L7.54545 5.04545C7.75971 5.25503 8.03183 5.39562 8.32674 5.4491C8.62164 5.50257 8.9258 5.46647 9.2 5.34545H9.27273C9.54161 5.23022 9.77093 5.03887 9.93245 4.79497C10.094 4.55107 10.1807 4.26526 10.1818 3.97273V3.81818C10.1818 3.33597 10.3734 2.87351 10.7144 2.53253C11.0553 2.19156 11.5178 2 12 2C12.4822 2 12.9447 2.19156 13.2856 2.53253C13.6266 2.87351 13.8182 3.33597 13.8182 3.81818V3.9C13.8193 4.19253 13.906 4.47834 14.0676 4.72224C14.2291 4.96614 14.4584 5.15749 14.7273 5.27273C15.0015 5.39374 15.3056 5.42984 15.6005 5.37637C15.8954 5.3229 16.1676 5.18231 16.3818 4.97273L16.4364 4.91818C16.6052 4.74913 16.8057 4.61503 17.0265 4.52353C17.2472 4.43203 17.4838 4.38493 17.7227 4.38493C17.9617 4.38493 18.1983 4.43203 18.419 4.52353C18.6397 4.61503 18.8402 4.74913 19.0091 4.91818C19.1781 5.08704 19.3122 5.28757 19.4037 5.50829C19.4952 5.72901 19.5423 5.96561 19.5423 6.20455C19.5423 6.44348 19.4952 6.68008 19.4037 6.9008C19.3122 7.12152 19.1781 7.32205 19.0091 7.49091L18.9545 7.54545C18.745 7.75971 18.6044 8.03183 18.5509 8.32674C18.4974 8.62164 18.5335 8.9258 18.6545 9.2V9.27273C18.7698 9.54161 18.9611 9.77093 19.205 9.93245C19.4489 10.094 19.7347 10.1807 20.0273 10.1818H20.1818C20.664 10.1818 21.1265 10.3734 21.4675 10.7144C21.8084 11.0553 22 11.5178 22 12C22 12.4822 21.8084 12.9447 21.4675 13.2856C21.1265 13.6266 20.664 13.8182 20.1818 13.8182H20.1C19.8075 13.8193 19.5217 13.906 19.2778 14.0676C19.0339 14.2291 18.8425 14.4584 18.7273 14.7273Z"
        stroke="#667085" stroke-width="2" stroke-linecap="round" stroke-linejoin="round" />
</svg> -->

<svg t="1749524324538" className="icon" viewBox="0 0 1024 1024" version="1.1"
    xmlns="http://www.w3.org/2000/svg" p-id="16018" width="24" height="24">
    <path
        d="M408.782435 453.237525c-89.932136 0-163.001996 73.06986-163.001996 163.001996 0 89.932136 73.06986 163.001996 163.001996 163.001996 89.932136 0 163.001996-73.06986 163.001996-163.001996-0.510978-89.932136-73.580838-163.001996-163.001996-163.001996z m0 285.636726c-67.449102 0-122.123752-54.674651-122.123752-122.123752s54.674651-122.123752 122.123752-122.123752 122.123752 54.674651 122.123753 122.123752-54.674651 122.123752-122.123753 122.123752z"
        p-id="16019" />
    <path
        d="M816.031936 697.996008v-163.001996l-118.035928-19.417166c-3.065868-11.241517-7.664671-21.972056-13.285429-32.191616l70.003992-97.596807-115.481038-115.481038-97.596806 70.003992c-10.219561-5.620758-20.9501-10.219561-32.191617-13.285429l-19.417166-118.035928H327.025948L307.608782 327.025948c-11.241517 3.065868-21.972056 8.175649-32.702594 13.285429L178.331337 271.840319 62.850299 386.810379l69.493014 96.574851c-5.10978 10.219561-9.708583 20.9501-13.285429 32.191616L1.021956 534.994012v163.001996l118.035928 19.417166c3.576846 11.241517 8.175649 22.994012 13.796407 33.213573l-69.493014 96.57485 115.481038 115.481038 97.085829-69.493014c10.219561 5.10978 20.439122 9.197605 31.16966 12.774451l19.417166 118.035928h163.001996l19.417166-118.035928c11.241517-3.576846 22.483034-8.175649 33.213573-13.796407l97.596806 70.003992 115.481038-115.481038-70.003992-97.596807c5.10978-10.219561 9.197605-20.439122 12.774451-31.16966l118.035928-19.928144z m-157.381237 7.664671c-2.55489 8.686627-6.642715 17.373253-10.219561 25.548902-6.642715 13.285429-5.10978 29.125749 3.576846 41.389221l50.075848 69.493014-66.427145 66.427146-69.493014-50.075848c-7.153693-5.10978-15.329341-7.664671-24.015968-7.664671-6.642715 0-13.285429 1.532934-19.417166 5.109781-7.664671 4.087824-16.351297 7.664671-26.05988 10.730538-14.818363 4.598802-25.037924 16.862275-27.592815 32.191617l-13.796407 84.311377H361.261477L347.46507 899.321357c-2.55489-15.329341-13.796407-28.103792-28.614771-32.191616-8.686627-2.55489-17.373253-6.642715-25.548902-10.219561-5.620758-2.55489-11.752495-4.087824-17.373253-4.087825-8.175649 0-16.862275 2.55489-23.50499 7.664671L183.441118 909.540918l-66.427146-66.427146 49.053892-68.471057c9.197605-12.774451 10.219561-29.125749 2.55489-42.922156-4.087824-7.664671-7.664671-16.351297-10.730538-26.570858-4.598802-14.307385-16.862275-25.037924-32.191617-27.592815L41.9002 663.249501v-94.01996l84.311377-13.796407c15.329341-2.55489 28.103792-13.796407 32.191617-28.614771 2.55489-8.175649 6.131737-16.862275 10.21956-25.037924 7.153693-13.796407 6.131737-30.147705-3.065868-42.411178l-49.053892-68.471057 66.427146-65.916168L251.401198 373.52495c7.153693 5.10978 15.329341 7.664671 23.50499 7.664671 6.131737 0 12.263473-1.532934 18.395209-4.087825 8.175649-4.087824 16.862275-8.175649 25.548902-10.730539 15.329341-4.598802 26.570858-16.862275 29.125749-32.702594l13.796407-84.311378H455.792415l13.796407 84.311378c2.55489 15.329341 13.796407 28.103792 28.614771 32.191616 8.686627 2.55489 16.862275 6.131737 24.015968 9.708583 6.131737 3.576846 13.285429 5.10978 19.928144 5.109781 8.175649 0 16.862275-2.55489 24.015968-7.664671l69.493014-50.075848 66.427145 66.427145-50.075848 69.493014c-9.197605 12.774451-10.219561 29.636727-2.55489 43.944112 4.087824 7.153693 7.664671 15.329341 9.708583 24.015968 4.598802 14.818363 16.862275 26.05988 32.191616 28.614771l84.311378 13.796407v94.01996l-84.311378 13.796407c-15.329341 2.55489-28.103792 13.796407-32.702594 28.614771z"
        p-id="16020" />
    <path
        d="M837.493014 114.459082c-40.367265 0-73.06986 32.702595-73.06986 73.06986S797.125749 260.598802 837.493014 260.598802 910.562874 227.896208 910.562874 187.528942c0-39.856287-32.702595-73.06986-73.06986-73.06986z m0 128.255489c-30.147705 0-54.674651-24.526946-54.674651-54.674651 0-30.147705 24.526946-54.674651 54.674651-54.674651s54.674651 24.526946 54.674651 54.674651-24.526946 54.674651-54.674651 54.674651z"
        p-id="16021" />
    <path
        d="M1020.423154 224.319361V151.249501l-53.141717-8.686627c-1.532934-5.10978-3.576846-9.708583-6.131736-14.307385l31.16966-43.433134-51.097804-52.11976-43.433134 31.16966c-4.598802-2.55489-9.708583-4.598802-14.307385-6.131736L874.283433 5.10978h-73.06986l-8.686627 53.141717c-5.10978 1.532934-9.708583 3.576846-14.818363 6.131737l-43.433134-30.658683-51.608782 51.608782 31.16966 43.433134c-2.55489 4.598802-4.598802 9.708583-5.620758 14.307385L655.073852 151.249501v73.06986l53.141717 8.686627c1.532934 5.10978 3.576846 10.219561 6.131736 14.818363l-31.16966 43.433134 51.608782 51.608782 43.433134-31.16966c4.598802 2.043912 9.197605 4.087824 14.307385 5.620758l8.686627 53.141717h73.06986l8.686627-53.141717c5.10978-1.532934 10.219561-3.576846 14.818363-6.131736L941.221557 342.355289l51.608782-51.608782-31.16966-43.944112c2.043912-4.598802 4.087824-9.197605 5.620758-14.307385l53.141717-8.175649z m-70.51497 3.576847c-1.021956 4.087824-3.065868 7.664671-4.598803 11.241517-3.065868 6.131737-2.043912 13.285429 1.532934 18.395209l22.483034 31.169661-29.636726 29.636726-31.169661-22.483034c-3.065868-2.043912-7.153693-3.576846-10.730539-3.576846-3.065868 0-6.131737 0.510978-8.686627 2.043912-3.576846 2.043912-7.153693 3.576846-11.752495 5.109781-6.642715 2.043912-11.241517 7.664671-12.263473 14.307385l-6.131736 37.812375h-41.9002l-6.131736-37.812375c-1.021956-7.153693-6.131737-12.774451-12.774451-14.307385-4.087824-1.021956-7.664671-3.065868-11.241517-4.598803-2.55489-1.021956-5.10978-2.043912-7.664671-2.043912-3.576846 0-7.664671 1.021956-10.730539 3.576846l-30.658683 21.972056-29.636726-29.636726 21.972056-30.658683c4.087824-5.620758 4.598802-13.285429 1.021956-19.417165-2.043912-3.576846-3.576846-7.153693-5.109781-11.752496-2.043912-6.642715-7.664671-11.241517-14.307385-12.263473l-37.812375-6.131736v-41.9002l37.812375-6.131736c7.153693-1.021956 12.774451-6.131737 14.307385-12.774451 1.021956-3.576846 2.55489-7.664671 4.598803-11.241517 3.065868-6.131737 2.55489-13.285429-1.532934-18.906188l-21.972056-30.658683 29.636726-29.636726 30.658683 21.972056c3.065868 2.043912 6.642715 3.576846 10.730539 3.576846 2.55489 0 5.620758-0.510978 8.175649-2.043912 3.576846-2.043912 7.664671-3.576846 11.241517-4.598802 6.642715-2.043912 11.752495-7.664671 12.774451-14.818364l6.131736-37.812375h41.9002L864.57485 61.317365c1.021956 7.153693 6.131737 12.774451 12.774451 14.307385 3.576846 1.021956 7.664671 2.55489 10.730539 4.598803 2.55489 1.532934 5.620758 2.55489 8.686627 2.55489 3.576846 0 7.664671-1.021956 10.730539-3.576846l31.169661-22.483034 29.636726 29.636726L946.331337 117.52495c-4.087824 5.620758-4.598802 13.285429-1.021956 19.417166 2.043912 3.065868 3.576846 6.642715 4.598803 10.730539 2.043912 6.642715 7.664671 11.752495 14.307385 12.774451l37.812375 6.131736v41.9002l-37.812375 6.131736c-6.642715 1.532934-12.263473 6.642715-14.307385 13.28543z"
        p-id="16022" />
</svg>