<!-- <svg width="24" height="24" viewBox="0 0 24 24" fill="none" xmlns="http://www.w3.org/2000/svg">
    <path
        d="M12 15C13.6569 15 15 13.6569 15 12C15 10.3431 13.6569 9 12 9C10.3431 9 9 10.3431 9 12C9 13.6569
10.3431 15 12 15Z"
        stroke="#667085" stroke-width="2" stroke-linecap="round" stroke-linejoin="round" />
    <path
        d="M18.7273 14.7273C18.6063 15.0015 18.5702 15.3056 18.6236 15.6005C18.6771 15.8954 18.8177 16.1676
19.0273 16.3818L19.0818 16.4364C19.2509 16.6052 19.385 16.8057 19.4765 17.0265C19.568 17.2472
19.6151 17.4838 19.6151 17.7227C19.6151 17.9617 19.568 18.1983 19.4765 18.419C19.385 18.6397 19.2509
18.8402 19.0818 19.0091C18.913 19.1781 18.7124 19.3122 18.4917 19.4037C18.271 19.4952 18.0344
19.5423 17.7955 19.5423C17.5565 19.5423 17.3199 19.4952 17.0992 19.4037C16.8785 19.3122 16.678
19.1781 16.5091 19.0091L16.4545 18.9545C16.2403 18.745 15.9682 18.6044 15.6733 18.5509C15.3784
18.4974 15.0742 18.5335 14.8 18.6545C14.5311 18.7698 14.3018 18.9611 14.1403 19.205C13.9788 19.4489
13.8921 19.7347 13.8909 20.0273V20.1818C13.8909 20.664 13.6994 21.1265 13.3584 21.4675C13.0174
21.8084 12.5549 22 12.0727 22C11.5905 22 11.1281 21.8084 10.7871 21.4675C10.4461 21.1265 10.2545
20.664 10.2545 20.1818V20.1C10.2475 19.7991 10.1501 19.5073 9.97501 19.2625C9.79991 19.0176 9.55521
18.8312 9.27273 18.7273C8.99853 18.6063 8.69437 18.5702 8.39947 18.6236C8.10456 18.6771 7.83244
18.8177 7.61818 19.0273L7.56364 19.0818C7.39478 19.2509 7.19425 19.385 6.97353 19.4765C6.7528 19.568
6.51621 19.6151 6.27727 19.6151C6.03834 19.6151 5.80174 19.568 5.58102 19.4765C5.36029 19.385
5.15977 19.2509 4.99091 19.0818C4.82186 18.913 4.68775 18.7124 4.59626 18.4917C4.50476 18.271
4.45766 18.0344 4.45766 17.7955C4.45766 17.5565 4.50476 17.3199 4.59626 17.0992C4.68775 16.8785
4.82186 16.678 4.99091 16.5091L5.04545 16.4545C5.25503 16.2403 5.39562 15.9682 5.4491
15.6733C5.50257 15.3784 5.46647 15.0742 5.34545 14.8C5.23022 14.5311 5.03887 14.3018 4.79497
14.1403C4.55107 13.9788 4.26526 13.8921 3.97273 13.8909H3.81818C3.33597 13.8909 2.87351 13.6994
2.53253 13.3584C2.19156 13.0174 2 12.5549 2 12.0727C2 11.5905 2.19156 11.1281 2.53253
10.7871C2.87351 10.4461 3.33597 10.2545 3.81818 10.2545H3.9C4.2009 10.2475 4.49273 10.1501 4.73754
9.97501C4.98236 9.79991 5.16883 9.55521 5.27273 9.27273C5.39374 8.99853 5.42984 8.69437 5.37637
8.39947C5.3229 8.10456 5.18231 7.83244 4.97273 7.61818L4.91818 7.56364C4.74913 7.39478 4.61503
7.19425 4.52353 6.97353C4.43203 6.7528 4.38493 6.51621 4.38493 6.27727C4.38493 6.03834 4.43203
5.80174 4.52353 5.58102C4.61503 5.36029 4.74913 5.15977 4.91818 4.99091C5.08704 4.82186 5.28757
4.68775 5.50829 4.59626C5.72901 4.50476 5.96561 4.45766 6.20455 4.45766C6.44348 4.45766 6.68008
4.50476 6.9008 4.59626C7.12152 4.68775 7.32205 4.82186 7.49091 4.99091L7.54545 5.04545C7.75971
5.25503 8.03183 5.39562 8.32674 5.4491C8.62164 5.50257 8.9258 5.46647 9.2 5.34545H9.27273C9.54161
5.23022 9.77093 5.03887 9.93245 4.79497C10.094 4.55107 10.1807 4.26526 10.1818
3.97273V3.81818C10.1818 3.33597 10.3734 2.87351 10.7144 2.53253C11.0553 2.19156 11.5178 2 12
2C12.4822 2 12.9447 2.19156 13.2856 2.53253C13.6266 2.87351 13.8182 3.33597 13.8182
3.81818V3.9C13.8193 4.19253 13.906 4.47834 14.0676 4.72224C14.2291 4.96614 14.4584 5.15749 14.7273
5.27273C15.0015 5.39374 15.3056 5.42984 15.6005 5.37637C15.8954 5.3229 16.1676 5.18231 16.3818
4.97273L16.4364 4.91818C16.6052 4.74913 16.8057 4.61503 17.0265 4.52353C17.2472 4.43203 17.4838
4.38493 17.7227 4.38493C17.9617 4.38493 18.1983 4.43203 18.419 4.52353C18.6397 4.61503 18.8402
4.74913 19.0091 4.91818C19.1781 5.08704 19.3122 5.28757 19.4037 5.50829C19.4952 5.72901 19.5423
5.96561 19.5423 6.20455C19.5423 6.44348 19.4952 6.68008 19.4037 6.9008C19.3122 7.12152 19.1781
7.32205 19.0091 7.49091L18.9545 7.54545C18.745 7.75971 18.6044 8.03183 18.5509 8.32674C18.4974
8.62164 18.5335 8.9258 18.6545 9.2V9.27273C18.7698 9.54161 18.9611 9.77093 19.205 9.93245C19.4489
10.094 19.7347 10.1807 20.0273 10.1818H20.1818C20.664 10.1818 21.1265 10.3734 21.4675
10.7144C21.8084 11.0553 22 11.5178 22 12C22 12.4822 21.8084 12.9447 21.4675 13.2856C21.1265 13.6266
20.664 13.8182 20.1818 13.8182H20.1C19.8075 13.8193 19.5217 13.906 19.2778 14.0676C19.0339 14.2291
18.8425 14.4584 18.7273 14.7273Z"
        stroke="#667085" stroke-width="2" stroke-linecap="round" stroke-linejoin="round" />
</svg> -->

<svg xmlns="http://www.w3.org/2000/svg" xlink="http://www.w3.org/1999/xlink" fill="none" version="1.1" width="14"
    height="14" viewBox="0 0 14 14">
    <defs>
        <clipPath id="master_svg0_94_17103">
            <rect x="0" y="0" width="14" height="14" rx="0" />
        </clipPath>
    </defs>
    <g clipPath="url(#master_svg0_94_17103)">
        <g>
            <path
                d="M12.8747,5.76121C12.8045,5.36908,12.5783,5.11572,12.2982,5.11572C12.2946,5.11572,12.291,5.11575,12.289,5.11583L12.2375,5.11583C11.4276,5.11583,10.76863,4.41855,10.76863,3.56146C10.76863,3.28332,10.89542,2.9715,10.89651,2.96881C11.0416,2.6230599999999997,10.92999,2.19909,10.63703,1.982787L10.61929,1.9695740000000002L9.13073,1.0944954L9.1119,1.0857588C9.01495,1.0411556,8.90883,1.0185381,8.796479999999999,1.0185381C8.566220000000001,1.0185381,8.33977,1.116337,8.19082,1.279984C8.02755,1.4583249999999999,7.46401,1.96739,7.03098,1.96739C6.59404,1.96739,6.02715,1.448325,5.86318,1.266681C5.71345,1.0996939000000001,5.48519,1.0000000540917,5.25261,1.0000000540917C5.14246,1.0000000540917,5.03825,1.0218233,4.94295,1.0648381L4.92361,1.0735205L3.38253,1.969339L3.36433,1.982697C3.07042,2.1988000000000003,2.9581299999999997,2.62239,3.10312,2.9679599999999997C3.1044,2.97106,3.23137,3.28119,3.23137,3.56143C3.23137,4.4185099999999995,2.57246,5.11579,1.762547,5.11579L1.711801,5.11579C1.70827,5.11572,1.7047560000000002,5.11566,1.70126,5.11566C1.421485,5.11566,1.1954069999999999,5.36904,1.125302,5.76125C1.120185,5.79,0.9999987349,6.47177,0.9999987349,7.00501C0.9999987349,7.53823,1.120185,8.21996,1.125319,8.24879C1.195476,8.64094,1.42169,8.89432,1.7016520000000002,8.89432C1.7052,8.89432,1.7088670000000001,8.89425,1.710982,8.894169999999999L1.762547,8.894169999999999C2.57246,8.894169999999999,3.23137,9.59145,3.23137,10.44852C3.23137,10.727,3.10462,11.0385,3.10349,11.0412C2.95847,11.3866,3.0698,11.8106,3.36261,12.0275L3.37999,12.0403L4.84018,12.9044L4.85874,12.9131C4.95566,12.9581,5.06149,12.9809,5.17326,12.9809C5.40676,12.9809,5.63485,12.8789,5.7834,12.708C5.99079,12.4695,6.55346,11.977,6.96902,11.977C7.41898,11.977,7.99601,12.5291,8.16252,12.7223C8.311399999999999,12.8961,8.541039999999999,12.9999,8.776900000000001,13C8.88656,13,8.990490000000001,12.9779,9.08591,12.9344L9.10486,12.9257L10.61844,12.0404L10.63635,12.0272C10.92977,11.8109,11.0417,11.3873,10.89705,11.0425C10.89577,11.0394,10.76863,10.72507,10.76863,10.44854C10.76863,9.59147,11.4276,8.89419,12.2375,8.89419L12.2875,8.894169999999999C12.2908,8.89425,12.2941,8.89428,12.2974,8.89428C12.578,8.89426,12.8045,8.640889999999999,12.8746,8.24901C12.8758,8.242090000000001,13,7.55155,13,7.00497C13,6.4693,12.8798,5.78989,12.8747,5.76121ZM5.18089,12.0836L3.90357,11.3278C3.95986,11.1748,4.07455,10.81775,4.07455,10.44855C4.07455,9.16652,3.14225,8.10659,1.94153,8.0091C1.9122080000000001,7.82828,1.8432460000000002,7.36485,1.8432460000000002,7.00503C1.8432460000000002,6.64571,1.912174,6.18186,1.941479,6.0009C3.14225,5.90348,4.07455,4.8435500000000005,4.07455,3.56145C4.07455,3.19323,3.96047,2.8371399999999998,3.9043,2.68411L5.26351,1.894104C5.31259,1.9470830000000001,5.50861,2.1529100000000003,5.77926,2.35701C6.2215,2.69061,6.64263,2.85976,7.03096,2.85976C7.41547,2.85976,7.83325,2.6938899999999997,8.2727,2.36674C8.541640000000001,2.16656,8.73673,1.9647000000000001,8.785599999999999,1.912624L10.09614,2.6829C10.03991,2.8359199999999998,9.9254,3.19274,9.9254,3.56146C9.9254,4.84357,10.85769,5.9035,12.0585,6.00092C12.0878,6.18215,12.1567,6.64681,12.1567,7.00505C12.1567,7.36472,12.0878,7.82832,12.0585,8.00919C10.85774,8.10659,9.92542,9.16652,9.92542,10.44864C9.92542,10.81726,10.03968,11.1736,10.0959,11.3266L8.76924,12.1024C8.71199,12.0381,8.518889999999999,11.8286,8.25156,11.6185C7.80077,11.2643,7.36926,11.0847,6.96901,11.0847C6.57259,11.0847,6.14434,11.2609,5.69612,11.6085C5.43267,11.8129,5.23825,12.0203,5.18089,12.0836ZM9.09926,6.9968C9.09926,5.75671,8.145859999999999,4.74784,6.97399,4.74784C5.80215,4.74784,4.848800000000001,5.75671,4.848800000000001,6.9968C4.848800000000001,8.23688,5.80215,9.24577,6.97399,9.24577C8.14588,9.24577,9.09926,8.23688,9.09926,6.9968ZM6.97399,5.64021C7.68089,5.64021,8.256,6.24878,8.256,6.9968C8.256,7.74487,7.68089,8.35347,6.97399,8.35347C6.26713,8.35347,5.69206,7.74487,5.69206,6.9968C5.69206,6.24876,6.26713,5.64021,6.97399,5.64021Z"
                fill="currentColor" fillOpacity="0.8999999761581421" />
        </g>
    </g>
</svg>