<!-- <svg width="24" height="24" viewBox="0 0 24 24" fill="none" xmlns="http://www.w3.org/2000/svg">
    <path
        d="M14 11H8M10 15H8M16 7H8M20 6.8V17.2C20 18.8802 20 19.7202 19.673 20.362C19.3854 20.9265 18.9265 21.3854 18.362 21.673C17.7202 22 16.8802 22 15.2 22H8.8C7.11984 22 6.27976 22 5.63803 21.673C5.07354 21.3854 4.6146 20.9265 4.32698 20.362C4 19.7202 4 18.8802 4 17.2V6.8C4 5.11984 4 4.27976 4.32698 3.63803C4.6146 3.07354 5.07354 2.6146 5.63803 2.32698C6.27976 2 7.11984 2 8.8 2H15.2C16.8802 2 17.7202 2 18.362 2.32698C18.9265 2.6146 19.3854 3.07354 19.673 3.63803C20 4.27976 20 5.11984 20 6.8Z"
        stroke="#667085" stroke-width="2" stroke-linecap="round" stroke-linejoin="round" />
</svg> -->
<svg xmlns="http://www.w3.org/2000/svg" xmlns:xlink="http://www.w3.org/1999/xlink" fill="none" version="1.1" width="14"
    height="14" viewBox="0 0 14 14">
    <defs>
        <clipPath id="master_svg0_94_17085">
            <rect x="0" y="0" width="14" height="14" rx="0" />
        </clipPath>
    </defs>
    <g clip-path="url(#master_svg0_94_17085)">
        <g>
            <path
                d="M12.4888,2.98129Q12.4098,1.975115,10.54182,1.437644Q9.02079,0.99999452685,6.99757,0.99999452685Q4.97711,0.99999452685,3.45617,1.436676Q1.5076953,1.996103,1.50285391,3.06365L1.50285538,5.93772L1.50197091,5.94403Q1.49391042,6.00161,1.5188408,6.06097L1.5234752,6.07201L1.5251063,6.0839Q1.661545,7.0784,3.57063,7.60082Q5.06696,8.010290000000001,6.99757,8.010290000000001Q7.83901,8.010290000000001,8.70487,7.91297Q9.72585,7.79822,10.516,7.57259Q12.4923,7.00825,12.4923,5.93919L12.4912,5.93698Q12.4846,5.90713,12.4846,5.88419L12.4846,2.98129L12.4888,2.98129ZM10.1955,2.38145Q8.84154,1.999059,6.99757,1.999059Q5.10683,1.999059,3.74592,2.3974Q3.2181800000000003,2.55186,2.87484,2.73895Q2.5518,2.9149700000000003,2.488791,3.06767L2.472536,3.10707L2.492247,3.14478Q2.55803,3.27065,2.8880999999999997,3.43156Q3.24593,3.60602,3.77298,3.75295Q5.17253,4.14312,6.99757,4.14312Q8.841529999999999,4.14312,10.1955,3.76073Q10.72046,3.61246,11.07602,3.43084Q11.40206,3.26429,11.49196,3.11904L11.5216,3.07109L11.49196,3.02314Q11.40206,2.87789,11.07602,2.71134Q10.72046,2.5297099999999997,10.1955,2.38145ZM3.73468,6.61396Q5.11068,7.01122,6.99757,7.01122L7.08558,7.01122L7.08558,7.00315Q8.89444,6.99421,10.21595,6.61697Q10.74098,6.4671,11.09085,6.28406Q11.41453,6.11473,11.49458,5.96691L11.5056,5.94664L11.5056,4.3298000000000005L11.38087,4.3881499999999996Q10.55961,4.77248,9.23525,4.97026Q8.136610000000001,5.13432,6.99757,5.13433Q5.85522,5.13433,4.75515,4.96929Q3.42481,4.7697,2.59911,4.3804L2.474194,4.32151L2.474194,5.88419Q2.474194,5.90713,2.480767,5.93698L2.481894,5.93919L2.481894,5.95745L2.488883,5.97426Q2.54665,6.11321,2.86731,6.28188Q3.2113899999999997,6.46288,3.73468,6.61396ZM6.92587,6.92126C6.77353,6.92061,6.62516,6.91787,6.48078,6.91324C6.62001,6.9177,6.76294,6.92041,6.90957,6.92119L6.92587,6.92126ZM12.493,8.08886Q12.4682,7.93625,12.3569,7.81737Q12.2127,7.66342,12.0105,7.66342L12.0028,7.66342Q11.8,7.66342,11.6567,7.80429Q11.5133,7.94527,11.5133,8.14723L11.5133,8.16475L11.5068,8.18097Q11.44699,8.33156,11.12448,8.50636Q10.78214,8.69189,10.25491,8.84551Q8.89128,9.24284,6.99758,9.24284Q5.11538,9.24284,3.7376,8.84558Q3.21343,8.69445,2.86849,8.51355Q2.54662,8.344750000000001,2.4888909999999997,8.20588L2.481902,8.189070000000001L2.481902,8.17081Q2.481902,8.15638,2.471184,8.11537Q2.463622,8.08643,2.46051,8.07055L2.4588010000000002,8.06183L2.4588010000000002,8.05294Q2.4588010000000002,8.01128,2.444991,7.98309L2.4433540000000002,7.97975L2.441994,7.97628Q2.436729,7.96285,2.412506,7.9292Q2.391089,7.89946,2.380021,7.88095Q2.374958,7.87307,2.366433,7.85883Q2.347607,7.82737,2.3382709999999998,7.81784Q2.3151289999999998,7.79423,2.247417,7.75277L2.245621,7.75167L2.2438789999999997,7.75049Q2.233503,7.74343,2.215565,7.72919Q2.196662,7.71419,2.195563,7.71381L2.1931089999999998,7.71298L2.190708,7.712Q2.176155,7.70606,2.131579,7.70049Q2.10546,7.69723,2.089614,7.69438Q2.062971,7.69212,2.026374,7.6789Q2.0052849999999998,7.67128,2.000083,7.67128Q1.8997009999999999,7.67128,1.813029,7.71045Q1.810461,7.71339,1.8082,7.71569L1.7998669999999999,7.7242L1.789634,7.73016Q1.697708,7.78377,1.656091,7.81693Q1.653348,7.82202,1.647578,7.83379L1.64301,7.84312L1.636472,7.85112Q1.5711474,7.93111,1.5515908,7.97388Q1.5503071,7.97973,1.5481802,7.99492Q1.5432079,8.030439999999999,1.5368482,8.04991Q1.5105632,8.13037,1.5105632,8.17081L1.5105632,10.92742L1.50967871,10.93374Q1.5016181,10.99132,1.5265486,11.0507L1.531183,11.0617L1.5328142,11.0736Q1.6692529999999999,12.0681,3.57834,12.5905Q5.074669999999999,13,7.00528,13Q7.84672,13,8.712579999999999,12.9027Q9.73356,12.7879,10.52371,12.5623Q12.5,11.9979,12.5,10.9289L12.4989,10.92669Q12.4923,10.89684,12.4923,10.87389L12.493,8.08886ZM3.73468,11.6037Q5.11068,12.0009,6.99758,12.0009L7.08559,12.0009L7.08559,11.9929Q8.89443,11.9839,10.21596,11.6067Q10.74097,11.4568,11.09086,11.2738Q11.41453,11.1044,11.49458,10.95662L11.5056,10.93635L11.5056,9.43738L11.38087,9.49573Q10.5596,9.88007,9.23525,10.07784Q8.13659,10.2419,6.99758,10.2419Q5.85366,10.2419,4.75225,10.07686Q3.41925,9.87711,2.59931,9.48807L2.474202,9.42871L2.474202,10.8739Q2.474202,10.89684,2.480775,10.92669L2.481902,10.9289L2.481902,10.94716L2.48889,10.96397Q2.54665,11.1029,2.86731,11.2716Q3.2114000000000003,11.4526,3.73468,11.6037ZM6.92588,11.911C6.77353,11.9103,6.62517,11.9076,6.48079,11.9029C6.62002,11.9074,6.76295,11.9101,6.90958,11.9109L6.92588,11.911Z"
                fill-rule="evenodd" fill="currentColor" fill-opacity="1" />
        </g>
    </g>
</svg>