<svg xmlns="http://www.w3.org/2000/svg" xmlns:xlink="http://www.w3.org/1999/xlink" fill="none"
    version="1.1" width="120" height="120" viewBox="0 0 120 120">
    <defs>
        <filter id="master_svg0_23_8393" filterUnits="objectBoundingBox"
            color-interpolation-filters="sRGB" x="0" y="0" width="1" height="1">
            <feFlood flood-opacity="0" result="BackgroundImageFix" />
            <feBlend mode="normal" in="SourceGraphic" in2="BackgroundImageFix" result="shape" />
            <feColorMatrix in="SourceAlpha" type="matrix" result="hardAlpha"
                values="0 0 0 0 0 0 0 0 0 0 0 0 0 0 0 0 0 0 127 0" />
            <feOffset dy="0" dx="0" />
            <feGaussianBlur stdDeviation="11.5" />
            <feComposite in2="hardAlpha" operator="arithmetic" k2="-1" k3="1" />
            <feColorMatrix type="matrix"
                values="0 0 0 0 0.9372549057006836 0 0 0 0 0.9411764740943909 0 0 0 0 0.95686274766922 0 0 0 1 0" />
            <feBlend mode="normal" in2="shape" result="effect1_innerShadow" />
        </filter>
        <mask id="master_svg1_23_8391" style="mask-type:alpha" maskUnits="objectBoundingBox">
            <g>
                <path
                    d="M10.303030014038086,77.37759971618652L95.52173001403808,77.37759971618652L95.52173001403808,109.36609971618653L10.303030014038086,109.36609971618653L10.303030014038086,77.37759971618652Z"
                    fill-rule="evenodd" fill="#FFFFFF" fill-opacity="1" />
            </g>
        </mask>
        <filter id="master_svg2_23_8392" filterUnits="objectBoundingBox"
            color-interpolation-filters="sRGB" x="0" y="0" width="1" height="1">
            <feFlood flood-opacity="0" result="BackgroundImageFix" />
            <feBlend mode="normal" in="SourceGraphic" in2="BackgroundImageFix" result="shape" />
            <feColorMatrix in="SourceAlpha" type="matrix" result="hardAlpha"
                values="0 0 0 0 0 0 0 0 0 0 0 0 0 0 0 0 0 0 127 0" />
            <feOffset dy="1" dx="0" />
            <feGaussianBlur stdDeviation="3" />
            <feComposite in2="hardAlpha" operator="arithmetic" k2="-1" k3="1" />
            <feColorMatrix type="matrix"
                values="0 0 0 0 0.8772689700126648 0 0 0 0 0.8986392021179199 0 0 0 0 0.9413796663284302 0 0 0 0.800000011920929 0" />
            <feBlend mode="normal" in2="shape" result="effect1_innerShadow" />
        </filter>
        <linearGradient x1="0.5" y1="0" x2="0.5" y2="1" id="master_svg3_2_5327">
            <stop offset="0%" stop-color="#E5E5ED" stop-opacity="1" />
            <stop offset="100%" stop-color="#DEE1E7" stop-opacity="1" />
        </linearGradient>
    </defs>
    <g>
        <g>
            <g>
                <ellipse cx="52.727272033691406" cy="108.29999828338623" rx="52.727272033691406"
                    ry="11.699999809265137" fill="#F9FAFD" fill-opacity="1" />
            </g>
            <g>
                <g>
                    <path
                        d="M10.303030014038086,77.37821772155762L95.52183001403809,77.37761772155761L80.16363001403809,57.67601772155762L27.707830014038088,57.24761772155762L10.303030014038086,77.37821772155762Z"
                        fill-rule="evenodd" fill="#B6BECE" fill-opacity="1" />
                </g>
                <g>
                    <g filter="url(#master_svg0_23_8393)">
                        <path
                            d="M77.7049899963379,96.53585912780761L28.13526999633789,96.53585912780761C25.49647999633789,96.53585912780761,23.35708999633789,94.41785912780762,23.35708999633789,91.80545912780762L23.35708999633789,28.730459127807617C23.35708999633789,26.118059127807616,25.49647999633789,24.000059127807617,28.13526999633789,24.000059127807617L77.7049899963379,24.000059127807617C80.34378999633789,24.000059127807617,82.4831899963379,26.118059127807616,82.4831899963379,28.730459127807617L82.4831899963379,91.80545912780762C82.4831899963379,94.41785912780762,80.34378999633789,96.53585912780761,77.7049899963379,96.53585912780761L77.7049899963379,96.53585912780761Z"
                            fill-rule="evenodd" fill="#F9FAFD" fill-opacity="1" />
                    </g>
                    <g mask="url(#master_svg1_23_8391)">
                        <g>
                            <path
                                d="M10.303030014038086,77.37759971618652L95.52173001403808,77.37759971618652L95.52173001403808,109.36609971618653L10.303030014038086,109.36609971618653L10.303030014038086,77.37759971618652Z"
                                fill-rule="evenodd" fill="#D8D8D8"
                                fill-opacity="0.009999999776482582" />
                        </g>
                        <g filter="url(#master_svg2_23_8392)">
                            <path
                                d="M10.302910014041117,77.37833813118652L29.019910014041116,77.44313811618652C29.019910014041116,77.44313811618652,33.85261001404112,77.48513771618653,35.93021001404112,84.15833971618652C35.93021001404112,84.15833971618652,36.778010014041115,85.79513971618653,39.23681001404112,85.87853971618652C41.69561001404112,85.96313971618652,66.60351001404112,86.16353971618652,66.60351001404112,86.16353971618652C66.60351001404112,86.16353971618652,69.24961001404111,86.28833971618653,70.32051001404112,83.23193971618652C71.39141001404113,80.17613971618653,72.21081001404112,77.32493811618653,76.87261001404111,77.37833813118652L95.52171001404112,77.37773813118652L95.52171001404112,103.62829971618652C95.52171001404112,103.62829971618652,95.08051001404112,108.43009971618652,89.72531001404111,109.36609971618653L15.382300014041117,109.36609971618653C15.382300014041117,109.36609971618653,10.390182714041117,108.55489971618653,10.302910014041117,102.94189971618653L10.302910014041117,77.37833813118652Z"
                                fill-rule="evenodd" fill="url(#master_svg3_2_5327)" fill-opacity="1" />
                        </g>
                    </g>
                </g>
            </g>
            <g>
                <rect x="33.93939208984375" y="32.400001525878906" width="38.18181610107422"
                    height="16.200000762939453" rx="1.2000000476837158" fill="#E0E5F0"
                    fill-opacity="1" />
            </g>
            <g>
                <rect x="33.93939208984375" y="57.599998474121094" width="38.18181610107422"
                    height="4.199999809265137" rx="2.0999999046325684" fill="#E0E5F0"
                    fill-opacity="1" />
            </g>
            <g>
                <rect x="33.93939208984375" y="67.19999694824219" width="38.18181610107422"
                    height="4.199999809265137" rx="2.0999999046325684" fill="#E0E5F0"
                    fill-opacity="1" />
            </g>
            <g>
                <g style="opacity:0;">
                    <rect x="87.2727279663086" y="0" width="32.727272033691406"
                        height="32.400001525878906" rx="0" fill="#1D2129" fill-opacity="1" />
                </g>
                <g>
                    <g>
                        <path
                            d="M94.0086154500866,30.06217603635788C93.9936254500866,31.16147603635788,94.25725545008659,31.48147603635788,95.5060654500866,30.93877603635788L100.56997545008659,28.59417603635788C101.67097545008659,28.79617603635788,102.76787545008659,28.90077603635788,103.8668754500866,28.90077603635788C112.7330754500866,28.90077603635788,119.9999754500866,22.68817603635788,119.9999754500866,14.90667603635788C119.9999754500866,7.12595603635788,112.73267545008659,0.9126760363578796,103.8668754500866,0.9126760363578796C95.0010454500866,0.9126760363578796,87.7336754500866,7.12595603635788,87.7336754500866,14.90667603635788C87.7336754500866,19.32067603635788,90.1039754500866,23.36327603635788,94.0086154500866,25.97827603635788L94.0086154500866,30.06217603635788ZM95.7272854500866,12.95997603635788L98.1818754500866,16.73997603635788L93.2727354500866,16.73997603635788L95.7272854500866,12.95997603635788ZM102.0000754500866,12.95997603635788L105.81817545008658,12.95997603635788L105.81817545008658,16.73997603635788L102.0000754500866,16.73997603635788L102.0000754500866,12.95997603635788Z"
                            fill-rule="evenodd" fill="#D6D9DF" fill-opacity="1" />
                    </g>
                    <g>
                        <path
                            d="M114.3642717794323,15.061647746562958Q114.3642717794323,15.167757746562957,114.35376177943229,15.273367746562958Q114.3432517794323,15.378967746562958,114.32234177943229,15.483037746562957Q114.30143177943229,15.587117746562958,114.2703217794323,15.688657746562958Q114.23920177943229,15.790207746562958,114.1981817794323,15.888247746562957Q114.1571717794323,15.986277746562958,114.1066417794323,16.079867746562957Q114.0561117794323,16.173447746562957,113.9965617794323,16.26167774656296Q113.9370117794323,16.34990774656296,113.8690217794323,16.43193774656296Q113.80102177943229,16.513967746562958,113.72523177943229,16.588997746562956Q113.64943177943229,16.664027746562958,113.5665817794323,16.731347746562957Q113.4837217794323,16.79866774656296,113.39460177943229,16.85761774656296Q113.3054817794323,16.916577746562957,113.21095177943229,16.966597746562957Q113.1164217794323,17.016617746562957,113.0173917794323,17.05722774656296Q112.91837177943229,17.09783774656296,112.81580177943229,17.12863774656296Q112.71323177943229,17.159437746562958,112.6081017794323,17.18014774656296Q112.5029717794323,17.200847746562957,112.39630177943229,17.211247746562957Q112.2896317794323,17.221647746562958,112.1824517794323,17.221647746562958Q112.0752617794323,17.221647746562958,111.9685917794323,17.211247746562957Q111.8619217794323,17.200847746562957,111.7568017794323,17.18014774656296Q111.65167177943229,17.159437746562958,111.54910177943229,17.12863774656296Q111.44653177943229,17.09783774656296,111.34750177943229,17.05722774656296Q111.2484817794323,17.016617746562957,111.15395177943229,16.966597746562957Q111.0594217794323,16.916577746562957,110.9702967794323,16.85761774656296Q110.8811747794323,16.79866774656296,110.7983187794323,16.731347746562957Q110.7154637794323,16.664027746562958,110.63967177943229,16.588997746562956Q110.5638797794323,16.513967746562958,110.4958817794323,16.43193774656296Q110.42788377943229,16.34990774656296,110.3683347794323,16.26167774656296Q110.3087847794323,16.173447746562957,110.2582577794323,16.079867746562957Q110.2077307794323,15.986277746562958,110.1667127794323,15.888247746562957Q110.1256947794323,15.790207746562958,110.0945801794323,15.688657746562958Q110.0634656794323,15.587117746562958,110.0425547794323,15.483037746562957Q110.02164387943229,15.378967746562958,110.0111378794323,15.273367746562958Q110.0006317794323,15.167757746562957,110.0006317794323,15.061647746562958Q110.0006317794323,14.955537746562957,110.0111378794323,14.849927746562958Q110.02164387943229,14.744327746562957,110.0425547794323,14.640247746562958Q110.0634656794323,14.536177746562958,110.0945801794323,14.434637746562958Q110.1256947794323,14.333087746562958,110.1667127794323,14.235047746562957Q110.2077307794323,14.137017746562957,110.2582577794323,14.043427746562958Q110.3087847794323,13.949847746562957,110.3683347794323,13.861615746562958Q110.42788377943229,13.773385746562958,110.4958817794323,13.691358746562958Q110.5638797794323,13.609330746562957,110.63967177943229,13.534296746562958Q110.7154637794323,13.459262746562958,110.7983187794323,13.391944746562958Q110.8811747794323,13.324626746562958,110.9702967794323,13.265673746562959Q111.0594217794323,13.206719746562957,111.15395177943229,13.156697746562958Q111.2484817794323,13.106675746562958,111.34750177943229,13.066067746562958Q111.44653177943229,13.025459746562957,111.54910177943229,12.994656646562957Q111.65167177943229,12.963853346562958,111.7568017794323,12.943151546562957Q111.8619217794323,12.922449746562958,111.9685917794323,12.912048746562958Q112.0752617794323,12.901647746562958,112.1824517794323,12.901647746562958Q112.2896317794323,12.901647746562958,112.39630177943229,12.912048746562958Q112.5029717794323,12.922449746562958,112.6081017794323,12.943151546562957Q112.71323177943229,12.963853346562958,112.81580177943229,12.994656646562957Q112.91837177943229,13.025459746562957,113.0173917794323,13.066067746562958Q113.1164217794323,13.106675746562958,113.21095177943229,13.156697746562958Q113.3054817794323,13.206719746562957,113.39460177943229,13.265673746562959Q113.4837217794323,13.324626746562958,113.5665817794323,13.391944746562958Q113.64943177943229,13.459262746562958,113.72523177943229,13.534296746562958Q113.80102177943229,13.609330746562957,113.8690217794323,13.691358746562958Q113.9370117794323,13.773385746562958,113.9965617794323,13.861615746562958Q114.0561117794323,13.949847746562957,114.1066417794323,14.043427746562958Q114.1571717794323,14.137017746562957,114.1981817794323,14.235047746562957Q114.23920177943229,14.333087746562958,114.2703217794323,14.434637746562958Q114.30143177943229,14.536177746562958,114.32234177943229,14.640257746562957Q114.3432517794323,14.744327746562957,114.35376177943229,14.849927746562958Q114.3642717794323,14.955537746562957,114.3642717794323,15.061647746562958Z"
                            fill="#D6D9DF" fill-opacity="1" />
                    </g>
                </g>
            </g>
        </g>
    </g>
</svg>