<svg t="1750831702383" class="icon" viewBox="0 0 1024 1024" version="1.1"
    xmlns="http://www.w3.org/2000/svg" p-id="11878" width="250" height="250">
    <path d="M0 0m0 0l1024 0q0 0 0 0l0 1024q0 0 0 0l-1024 0q0 0 0 0l0-1024q0 0 0 0Z" fill="currentColor"
        fill-opacity="0" p-id="11879" data-spm-anchor-id="a313x.search_index.0.i2.508e3a81txx8sQ"
        class=""></path>
    <path
        d="M740.032 412.992a43.008 43.008 0 0 0 38.528-23.68l58.112-118.08a42.432 42.432 0 0 0-7.424-47.936l-30.528-31.872a42.112 42.112 0 0 0-52.224-7.04L629.12 254.528a42.496 42.496 0 0 0-20.608 36.288v52.608L533.184 415.552l-52.352-57.408C488.96 289.92 475.968 240 442.24 209.792c-47.744-42.624-119.232-30.016-147.712-22.592a28.288 28.288 0 0 0-12.352 48l46.848 44.544a50.112 50.112 0 0 1-14.912 32.256 50.048 50.048 0 0 1-28.992 14.08l-51.2-49.472a28.224 28.224 0 0 0-47.744 16.448c-4.736 33.856-10.24 117.568 40.896 164.032 30.592 27.904 74.432 36.288 130.368 25.152l5.12 5.376c9.856 10.368 22.4 23.616 32.512 33.664L214.272 702.08a101.12 101.12 0 0 0-29.76 60.8c-2.432 23.68 5.12 46.208 20.8 61.824 13.696 13.696 32.768 21.248 53.312 21.248 2.816 0 5.696-0.192 8.512-0.448 22.272-2.24 43.84-12.8 60.8-29.76l188.992-188.992c7.232 7.68 16.256 17.92 24.704 28.672-8.96 71.552 4.16 123.328 38.912 153.984 25.792 22.784 58.24 29.376 87.104 29.376 24.576 0 46.528-4.8 59.52-8.32a28.288 28.288 0 0 0 11.648-48.128l-45.312-41.984a45.952 45.952 0 0 1 42.816-45.12c12.8 12.992 34.368 34.56 45.888 44.672a28.352 28.352 0 0 0 46.4-15.104c16.448-73.152 7.616-125.952-26.24-156.928-44.032-40.192-113.856-28.416-147.456-19.456l-52.928-57.728 81.92-78.464 56.128 0.832z m-342.912 41.6c-6.528-6.784-11.584-12.16-13.504-14.016a28.16 28.16 0 0 0-26.368-7.232c-44.864 10.624-77.888 6.72-98.048-11.648-19.456-17.664-27.136-49.28-28.032-81.152l26.688 25.856a28.16 28.16 0 0 0 19.328 8A98.368 98.368 0 0 0 376.96 275.968v-4.48a28.416 28.416 0 0 0-8.832-20.48l-24.512-23.36c22.144-1.28 48.576 1.664 66.688 17.92 22.656 20.16 30.08 58.88 22.016 114.944-1.216 8.32 1.28 16.64 6.784 22.784 6.784 7.552 30.72 33.92 59.52 65.344l-9.344 8.96-15.36-15.36-45.12 45.248c-9.728-9.792-22.464-23.168-31.68-32.832z m-103.04 327.296c-17.28 17.28-42.432 21.376-54.976 8.96-7.36-7.424-7.552-17.792-7.04-23.296a53.952 53.952 0 0 1 16-31.744l225.92-225.92 46.016 46.08-225.92 225.92z m333.824-192.192a28.288 28.288 0 0 0 29.44 7.808c8.064-2.56 79.744-24.512 112.704 5.632 17.92 16.384 20.736 46.336 17.792 75.904-7.744-7.68-15.424-15.36-23.04-23.168a28.352 28.352 0 0 0-17.984-8.32 93.76 93.76 0 0 0-100.992 99.328l0.256 4.16a28.16 28.16 0 0 0 9.024 18.944l22.208 20.48c-21.696 1.472-47.296-1.28-65.088-16.96-28.864-25.472-28.032-78.976-22.208-119.36a28.928 28.928 0 0 0-5.312-21.12 476.16 476.16 0 0 0-33.92-40.192l36.864-36.864-26.368-26.368 6.144-5.888 60.48 65.984z m24.512-213.632l-124.928 119.68-4.352-4.288 120.064-115.072a42.496 42.496 0 0 0 13.12-30.592v-51.84l110.912-66.24 24.832 25.92-54.912 111.424-54.912-0.768a41.216 41.216 0 0 0-29.824 11.776z"
        fill="currentColor" p-id="11880"></path>
</svg>