<svg t="1750754759028" class="icon" viewBox="0 0 1024 1024" version="1.1"
    xmlns="http://www.w3.org/2000/svg" p-id="8196" xmlns:xlink="http://www.w3.org/1999/xlink"
    width="200" height="200">
    <path
        d="M688 312v-48A8 8 0 0 0 680 256h-384a8 8 0 0 0-8 8v48c0 4.416 3.584 8 8 8h384a8 8 0 0 0 8-8zM296 400a8 8 0 0 0-8 8v48c0 4.416 3.584 8 8 8H480a8 8 0 0 0 8-8v-48A8 8 0 0 0 480 400H296z m144 452.032H208v-704H768v343.936c0 4.48 3.584 8 8 8H832a8 8 0 0 0 8-8v-384a32 32 0 0 0-32-32h-640a32 32 0 0 0-32 32v784a32 32 0 0 0 32 32h272A8 8 0 0 0 448 916.032v-56.064a8 8 0 0 0-8-7.936z m445.696 51.456l-93.312-93.312a176 176 0 1 0-43.584 40.768l94.72 94.72a7.808 7.808 0 0 0 5.568 2.368 8.064 8.064 0 0 0 5.632-2.304l30.976-31.04a7.936 7.936 0 0 0 0-11.2z m-233.728-87.488a112 112 0 1 1 0-224 112 112 0 1 1 0 224z"
        fill="currentColor" fill-opacity=".9" p-id="8197"></path>
</svg>