<svg xmlns="http://www.w3.org/2000/svg" xlink="http://www.w3.org/1999/xlink" fill="none"
    version="1.1" width="20" height="20" viewBox="0 0 20 20">
    <defs>
        <clipPath id="master_svg0_76_05090">
            <rect x="0" y="0" width="20" height="20" rx="0" />
        </clipPath>
    </defs>
    <g clipPath="url(#master_svg0_76_05090)">
        <g>
            <path
                d="M3.0087890625,4.210655624999999L2.0445030625,4.210655624999999C1.6450830625,4.210655624999999,1.3212890625,3.886865625,1.3212890625,3.487445625C1.3212890625,3.088025625,1.6450830625,2.764225625,2.0445030625,2.764225625L17.9551890625,2.764225625C18.3545890625,2.764225625,18.6783890625,3.088025625,18.6783890625,3.487445625C18.6783890625,3.886865625,18.3545890625,4.210655624999999,17.9551890625,4.210655624999999L4.455219062499999,4.210655624999999L4.455219062499999,16.987415625C4.455219062499999,17.653115625,4.9948790625,18.192815625,5.6605790625,18.192815625L14.3391890625,18.192815625C15.0048890625,18.192815625,15.5444890625,17.653115625,15.5444890625,16.987415625L15.5444890625,6.380305625C15.5444890625,5.980885625,15.8682890625,5.657085625,16.2676890625,5.657085625C16.6670890625,5.657085625,16.990889062500003,5.980885625,16.990889062500003,6.380305625L16.990889062500003,16.987415625C16.990889062500003,18.451915625,15.8036890625,19.639215625,14.3391890625,19.639215625L5.6605790625,19.639215625C4.1960690624999994,19.639215625,3.0087890625,18.451915625,3.0087890625,16.987415625L3.0087890625,4.210655624999999ZM8.0712890625,1.799945625C7.6718690625,1.799945625,7.3480790625,1.476145625,7.3480790625,1.076729625C7.3480790625,0.677309625,7.6718690625,0.353515625,8.0712890625,0.353515625L11.9283890625,0.353515625C12.3278890625,0.353515625,12.6516890625,0.677309625,12.6516890625,1.076729625C12.6516890625,1.476145625,12.3278890625,1.799945625,11.9283890625,1.799945625L8.0712890625,1.799945625ZM7.3480790625,8.308875624999999C7.3480790625,7.909455625,7.6718690625,7.585655625,8.0712890625,7.585655625C8.4707090625,7.585655625,8.794509062500001,7.909455625,8.794509062500001,8.308875624999999L8.794509062500001,14.094615625C8.794509062500001,14.494015625,8.4707090625,14.817815625,8.0712890625,14.817815625C7.6718690625,14.817815625,7.3480790625,14.494015625,7.3480790625,14.094615625L7.3480790625,8.308875624999999ZM11.2052190625,8.308875624999999C11.2052190625,7.909455625,11.5289890625,7.585655625,11.9283890625,7.585655625C12.3278890625,7.585655625,12.6516890625,7.909455625,12.6516890625,8.308875624999999L12.6516890625,14.094615625C12.6516890625,14.494015625,12.3278890625,14.817815625,11.9283890625,14.817815625C11.5289890625,14.817815625,11.2052190625,14.494015625,11.2052190625,14.094615625L11.2052190625,8.308875624999999Z"
                fill="#F56C6C" fillOpacity="1" />
        </g>
    </g>
</svg>